<?xml version="1.0" encoding="utf-8"?><svg version="1.1" id="aboutus_1" xmlns="http://www.w3.org/2000/svg" xmlns:xlink="http://www.w3.org/1999/xlink" x="0px" y="0px" viewBox="0 0 323.6 256.3" style="enable-background:new 0 0 323.6 256.3;" xml:space="preserve"><style type="text/css">.st0{fill:#5B5856;}.st1{fill:#5A5654;}.st2{fill:#FFFFFF;}</style><g><path class="st0" d="M247.2,68.4c0.2-0.4,0.3-0.9,0.2-1.3c-0.1-1.1-0.8-1.8-2.2-2c0.1-1.2,0-3.5-0.2-7.1c-0.2-2.1-0.7-3.2-1.4-3.2l0,0c-0.8-0.1-1.4,1.3-1.8,4c0,0.5,0,1.6,0.1,3.5c0,1.5,0.1,2.6,0.1,3.1c-1.8,0.4-2.6,1.2-2.5,2.4c0.1,0.6,0.6,1.1,1.8,1.6c0.2,0.1,0.3,0.1,0.5,0.2c0,0.1,0,0.3-0.1,0.5l0.1,1.1c0.3,1.9,0.8,2.9,1.4,2.8c0.4,0,0.6-0.7,0.6-2.1l0-1.9c0.4,0,0.9,0,1.4,0C246.1,69.6,246.8,69.2,247.2,68.4z M244.3,68.7c0-0.1,0.1-0.2,0.1-0.3c0.1-0.4,0.2-0.6,0.3-0.6c0.4,0,0.7,0.1,0.8,0.4l0,0c0,0.2,0.1,0.3,0.1,0.4c-0.2,0.1-0.4,0.1-0.6,0.2C244.8,68.7,244.5,68.7,244.3,68.7z M242.2,71c0-0.3,0-0.7,0-1.1c0-0.2,0-0.3,0-0.4c0.3,0.1,0.7,0.1,1,0.2c-0.1,0.3-0.1,0.6,0,1.1l0,0c0.1,1.2,0,2-0.1,2.4c-0.4-0.6-0.6-1.1-0.7-1.2C242.3,71.8,242.3,71.4,242.2,71z M244.1,58l0.2,6.2l0.1,0.8c-0.4,0-0.8,0-1.2,0c-0.2,0-0.3,0-0.4,0.1c0-0.6,0-1.4,0-2.4c-0.1-3.2,0.1-5.4,0.4-6.6c0.4,0.1,0.6,0.4,0.8,0.9C244,57.2,244,57.5,244.1,58z M246.4,67.2c0,0.3-0.1,0.6-0.3,0.9c0,0.1-0.1,0.1-0.1,0.2l0,0c-0.1-0.7-0.5-1-1.2-1c-0.7,0.1-1.1,0.6-1,1.5c-0.6-0.1-1.2-0.2-1.9-0.4c-0.9-0.3-1.4-0.5-1.4-0.7c0-0.3,0.2-0.6,0.7-0.9c0.2-0.1,0.5-0.3,0.8-0.4c0.1,0.3,0.3,0.4,0.5,0.3c0.1,0,0.1-0.2,0.1-0.5c0.6-0.1,1.3-0.2,2-0.2c0.4,0.3,0.9,0.5,1.4,0.7l0,0C246.3,66.8,246.4,66.9,246.4,67.2z"/><path class="st1" d="M192.9,237.4c0-1-2.3-2.2-3.1-2.7c-2.6-1.7-5.2-3.2-7.6-5c-2.4-1.8-4.6-3.9-7.3-5.3c-2-1.1-4-0.7-6.1-0.3c-6.5,1.4-12.9,4.2-19.1,6.4c-5.6,2-12,3.7-17,7.1l0,0c-0.2,0-0.4,0.1-0.4,0.4c-0.1,2.3,0.2,4.5,1.7,6.4c1.8,2.1,4.7,3.3,6.9,4.9c2.6,1.9,5.2,3.7,8,5.4c0.9,0.5,2.8,2,4,1.6c2.5,0,5.4-1.5,7.6-2.4c4.2-1.7,8.4-3.4,12.7-5c4.1-1.6,8.1-3.6,12.1-5.4c3.2-1.4,6.4-2.2,7.4-5.7C192.9,237.7,192.9,237.5,192.9,237.4L192.9,237.4z M183,243.4c-4,1.7-7.9,3.6-11.9,5.2c-3.1,1.2-6.2,2.3-9.2,3.6c-2.5,1.1-5.6,2.7-8.5,3.2c-0.1-0.1-0.2-0.2-0.4-0.1c-1.3,0.3-3.2-1.4-4.3-1.9c-2.3-1.2-4.3-2.8-6.4-4.3c-1.6-1.2-3.3-2.3-5-3.4c-3-2-3.9-3.9-4.1-7.4c4.2-2.7,9.2-3.9,13.8-5.7c5.2-1.9,10.5-3.7,15.8-5.5c2.4-0.9,4.7-1.6,7.2-2.2c3.6-0.8,6,1.1,8.6,3.2c1.8,1.4,3.6,2.8,5.5,4.1c2.3,1.6,4.9,2.8,7,4.6c0.9,0.8,0.7,0.4-0.5,1.1c-1.2,0.6-2.5,1.1-3.7,1.7c-2.8,1.2-5.6,2.4-8.4,3.6c-5.1,2.1-10.3,3.8-15.4,5.9c-2.6,1.1-5.1,2.1-7.7,3.1c-1.9,0.7-3.5,1.3-5.2-0.1c-0.7-0.6-1.4-1.3-2.1-1.8c-4.5-3.4-9.5-6.3-13.4-10.5c-0.3-0.4-0.9,0.2-0.5,0.5c3.7,4.1,8.3,7,12.8,10.1c1.6,1.2,3,3.1,5.1,3.4c2,0.3,4.8-1.3,6.6-2c11.2-4.4,22.3-8.7,33.3-13.6C190.1,241.1,185.9,242.2,183,243.4L183,243.4z"/><path class="st1" d="M181.7,243.3C181.7,243.3,181.7,243.2,181.7,243.3c0-0.1,0-0.1,0-0.1c0,0,0,0,0,0l0,0c0,0,0,0,0,0c0,0-0.1-0.1-0.1-0.1c0,0-0.1,0-0.1,0l0,0c0,0-0.1,0-0.1,0c-0.2,0.1-0.3,0.2-0.3,0.5c0,0,0,0.1,0,0.1c0,0.3,0.5,0.4,0.5,0.1c0,0,0,0,0-0.1C181.6,243.4,181.7,243.4,181.7,243.3L181.7,243.3z M186.5,241.3c-1.2,0.1-2.9,0.5-3.7,1.4c-0.2,0.2,0,0.5,0.2,0.4c0.6-0.2,1.1-0.5,1.7-0.7c0.6-0.2,1.3-0.4,1.9-0.7C186.8,241.6,186.7,241.3,186.5,241.3L186.5,241.3z M179.9,229.7c-0.9-0.4-2.3-0.5-2.8,0.6c-0.4,0.9,0.2,1.7,1,2.1c0,0,0,0.1,0.1,0.1c0.8,0.6,2.3,0.4,2.9-0.4C181.9,231,180.7,230.1,179.9,229.7L179.9,229.7z M180.4,231.7c-0.5,0.3-1,0.3-1.5,0.3c-0.2-0.1-0.4-0.2-0.6-0.4c0.1,0,0.1,0,0.2,0.1c0.2,0,0.2-0.3,0-0.3c-0.1,0-0.2,0-0.3-0.1c-0.1-0.1-0.2,0-0.2,0c-0.1-0.2-0.2-0.4-0.1-0.7c0.2-0.6,1.3-0.4,1.7-0.2C180.1,230.5,181.3,231.1,180.4,231.7L180.4,231.7z"/><path class="st1" d="M180.3,231c-0.3-0.2-0.6-0.4-1-0.6c-0.4-0.2-0.7,0.1-1,0.3c-0.3,0.3,0.1,0.6,0.4,0.4c0.1-0.1,0.3-0.2,0.4-0.3c0.2,0.1,0.4,0.2,0.6,0.3c-0.2,0.1-0.5,0.3-0.7,0.3c-0.3,0.1-0.2,0.5,0.1,0.4c0.4-0.1,0.8-0.3,1.2-0.6C180.5,231.3,180.5,231.1,180.3,231L180.3,231z M185,238.5c-2.7-2.3-5.9-4-8.9-5.9c-1.6-1-3.1-2.1-4.7-3.2c-1.5-1.1-3.1-1.6-4.8-2.4c-0.2-0.1-0.3,0-0.4,0.1c-3,0.7-5.8,2.2-8.8,3c-3.2,0.9-6.4,2-9.6,3.1c-2.7,0.9-5.3,2.1-8.1,2.8c-1.4,0.3-3.1,0.6-4,1.9c-0.1,0.1-0.1,0.3,0,0.3c0,0.1,0,0.2,0.1,0.2c2.4,2.7,5.3,4.7,8.2,6.8c2.9,2.1,5.7,4.9,9.1,6.2c0.1,0,0.2,0,0.2-0.1c10.7-2.7,21-7.9,31.1-12.4c0,0,0,0,0.1-0.1l0.1,0.1C184.9,239.2,185.2,238.7,185,238.5L185,238.5z M153.1,250.9c0,0-0.1,0-0.1,0c-2.5-2-5.2-3.8-7.8-5.7c-3-2.2-6.3-4.1-8.7-7c1.5-1.1,3.3-1.3,5-1.8c2.8-0.9,5.6-2.1,8.4-3.1c2.9-1,5.8-2,8.7-2.9c2.6-0.8,5.3-2,7.9-2.7l0,0c1.2,0.7,2.5,1.1,3.7,1.8c1.6,0.9,3.1,2.2,4.6,3.2c3,2,6.1,3.7,9.1,5.8C173.9,243.1,163.8,248.1,153.1,250.9L153.1,250.9z"/><path class="st0" d="M126.2,219.7h-1.1c-0.4,0.2-0.8,0.3-1.1,0.3c-0.1,0-0.4,0-0.6-0.1c-0.2-0.1-0.4-0.1-0.5-0.1c-0.3,0-0.4,0.1-0.4,0.4l0,0.2c0,0.1,0.1,0.2,0.2,0.2l0.3-0.1c0.1,0,0.3,0,0.5,0.1c0.2,0.1,0.4,0.1,0.5,0.1c0.3,0,0.5,0,0.6,0c0.1,0,0.2-0.1,0.3-0.2l1.4,0c0.6-0.2,1.1-0.4,1.5-0.4c0.1,0,0.2,0,0.3,0.1c0.1,0.1,0.2,0.1,0.3,0.1c0,0,0.1,0,0.1-0.1c0.1-0.1,0.1-0.1,0.1-0.2c0-0.4-0.3-0.5-0.9-0.5C127.7,219.4,127.2,219.6,126.2,219.7L126.2,219.7L126.2,219.7z"/><path class="st0" d="M123.7,219.1c0.6-0.2,1-0.3,1.2-0.3c0.6,0,1.1,0,1.5,0.1c0.5,0,1-0.1,1.4-0.3c0.4-0.2,0.7-0.4,0.8-0.4c0.3,0,0.6,0.1,0.9,0.2h1.4l0.7-0.1h1.3l1-0.3c0.8-0.2,1.4-0.3,2-0.3c0.1,0,0.3,0.1,0.7,0.2c0.4,0.1,0.9,0.2,1.3,0.2c0.1,0,0.7-0.1,1.8-0.4c1.1-0.3,2-0.5,2.6-0.5c0.1,0,0.3,0,0.7,0.1c0.4,0.1,0.7,0.1,1.1,0.1c1.4,0,2.6-0.1,3.5-0.3c0.9-0.2,1.3-0.3,1.3-0.5c0-0.2-0.3-0.2-1-0.1c-1.3,0.2-2.6,0.3-3.9,0.3l0,0c-0.2,0-0.5,0-0.8,0c-0.4-0.1-0.9-0.2-1.5-0.2c-0.4,0-1,0.1-2,0.4c-0.9,0.3-1.4,0.4-1.4,0.5h-1c-0.2-0.2-0.9-0.4-2-0.4c-0.8,0-1.7,0.2-2.6,0.5h-1.2l-0.6,0.1h-1.5c-0.2-0.1-0.5-0.2-0.9-0.2c-0.2,0-0.6,0.1-1,0.4c-0.4,0.2-0.8,0.4-1.3,0.4c-0.4,0-0.7,0-0.8,0c-0.1-0.1-0.3-0.1-0.6-0.1c-0.3,0-0.8,0.1-1.3,0.3c-0.5,0.1-1,0.2-1.3,0.2c-0.2,0-0.4,0-0.5-0.1c-0.1-0.1-0.2-0.2-0.3-0.2c-0.2,0-0.4,0.1-0.4,0.4c0,0.3,0.4,0.4,1.2,0.4C122.7,219.4,123.2,219.3,123.7,219.1z"/><path class="st0" d="M134.1,221c0-0.3-0.5-0.4-1.5-0.2c-1.1,0.2-1.7,0.4-1.9,0.4c-0.6,0-1.1,0.1-1.5,0.3c-0.4,0.3-0.8,0.5-1.1,0.7c-0.1-0.1-0.1-0.3,0-0.7c0-0.3-0.1-0.4-0.4-0.4c-0.2,0-0.6,0.2-1.4,0.7c-0.8,0.4-1.3,0.7-1.5,0.7c-0.1,0-0.4-0.2-0.7-0.5c-0.3-0.4-0.5-0.5-0.7-0.5c-0.2,0-0.3,0.1-0.3,0.3c0,0.1,0.2,0.3,0.6,0.7c0.4,0.4,0.8,0.6,1.1,0.6c0.4,0,1.4-0.4,2.7-1.2c0,0,0,0.2,0,0.5c0.1,0.3,0.3,0.4,0.7,0.4c0.2,0,0.5-0.2,1.1-0.5c0.5-0.3,1-0.5,1.4-0.4c0.4,0,1-0.1,2-0.3l0,0C133.6,221.3,134.1,221.1,134.1,221z"/><path class="st0" d="M159.7,216.8c-0.1-0.3-0.4-0.4-0.8-0.4c-0.4,0-0.7,0-0.7,0c0,0-0.1,0.1-0.2,0.1h-0.2c-0.1-0.4-0.2-0.5-0.4-0.3c-0.2,0.2-0.3,0.4-0.3,0.5l0,0c0,0.1,0.1,0.4,0.2,1.1c0,0.1,0,0.2-0.1,0.5c0,0.1,0,0.2,0.1,0.3c0,0.1,0,0.1,0,0.2c0,0.1,0,0.2,0,0.3c0.1,0.1,0.3,0.2,0.6,0.2c0.1,0,0.2,0,0.2-0.1c0,0,0-0.1,0-0.1l0.9-0.1c0.6-0.1,0.9-0.2,0.9-0.4c0-0.1,0-0.1-0.1-0.2c-0.1-0.1-0.2-0.1-0.4,0c0.1-0.2,0.1-0.6,0.2-1.1V216.8z M159.2,217.7l-0.1,0.2c-0.1,0-0.2,0.1-0.2,0.2v0.4c-0.4-0.1-0.7-0.1-1-0.1c0.1-0.3,0.1-0.7,0.1-1.3l0.5-0.2l0,0l0.7,0V217.7z"/><path class="st0" d="M110.2,222c0,0.1,0,0.3,0.1,0.6c0.1,0.4,0.3,0.5,0.5,0.5c0.3,0,0.5-0.4,0.6-1.2c0-0.6-0.3-1.2-0.8-1.9c-0.5-0.6-0.8-0.7-0.8,0c0.4,0.8,0.5,1.2,0.5,1.3L110.2,222L110.2,222z"/><path class="st0" d="M170.9,203.8l-0.1-0.2c-0.2-0.1-0.4-0.3-0.7-0.6c-0.1-0.1-0.1-0.1-0.1-0.2c0,0.1,0,0.1,0,0.2c-1.6-0.6-3.8-1.2-6.4-2c-0.1,0.1-0.1,0.2-0.2,0.3c-0.2,0.3-0.4,0.6-0.6,0.8c1.1,0.3,2.7,0.8,4.9,1.5c-9.7,1.3-17.2,2.2-22.5,2.9c-10,1.2-24.2,3.5-31.7,4.3c-0.1,0-0.2,0.1-0.3,0.1c-1.2-0.6-3.6-1.4-5.6-2.4c-3.2-1.4-5.1-2.2-6-2.6c-2.4-1.5-4.3-2.6-5.6-3.3c-0.1-0.1-0.2-0.1-0.4-0.2c0.7-0.1,1.5-0.1,2.3-0.2c0.2,0,0.6-0.1,1.2-0.1c-0.7-0.3-1.3-0.9-1.6-1.5c-2.4,0.2-3.8,0.4-4,0.4c-0.2,0-0.4,0.1-0.6,0.1c-0.2-0.1-0.4,0-0.4,0.4c0,0.1,0,0.1,0,0.2v0.3c0,0.7,0,1.2-0.1,1.5c-0.1,0.3-0.2,0.7-0.2,1.1c0,0.7,1.7,1.9,5,3.7c-0.2,0.1-0.4,0.1-0.6,0.2c-1.3,0.6-2,1.1-2,1.7c0,0.3,0.1,0.6,0.4,0.9c-0.2,0-0.3,0.1-0.3,0.3l0.3,0.5c0.2,0.4,0.4,0.8,0.4,1.1l0,0.3c-0.3-0.1-0.4,0-0.4,0.2c0,0.1,0.1,0.2,0.4,0.4l0,0.7c0,0.1-0.1,0.2-0.2,0.5c0,0,0,0.1,0,0.1c-0.1,0-0.1,0.1-0.1,0.2c-0.1,0-0.3,0-0.4,0c-0.8,0-1.3,0.1-1.5,0.3c-0.1,0.1-0.2,0.3-0.2,0.6c0,0.6,1.8,2.1,5.5,4.5c1.7,1.1,3.1,2,4.4,2.6c0.4,0.3,1.1,0.8,2.3,1.5c1.7,0.9,2.8,1.4,3.4,1.4c0.2,0,0.4-0.1,0.6-0.2c0.2-0.1,0.9-0.2,2.2-0.2c1.1,0,20.1-0.6,24.7-1.2c4.1-0.5,6.8-0.9,8.1-1.2l3.7-0.1c0.6-0.2,3.3-0.4,7.9-0.8l3.4,0c0.5-0.1,1-0.3,1.6-0.4c0.1,0,0.1,0,0.1,0h0.2c0.5,0,1-0.6,1.6-1.8c0.5-1,0.8-1.7,0.8-2.1c0-1.5-0.6-3.1-1.9-4.8c-0.3-0.3-0.5-0.6-0.7-0.8V213c0-0.1,0-0.1-0.1-0.2v0c-0.1-0.4-0.3-0.5-0.7-0.5c-0.4,0.1-0.8,0.2-1.3,0.3l-0.2-0.2c0.3-0.4,0.2-0.8,0-1.2c-0.4-0.5-1-0.8-1.9-0.8c-0.1-0.1-0.3-0.2-0.4-0.3c6.8-0.8,11.6-1.5,14.3-2c0,0,0-0.1,0-0.1c0.1-0.1,0.3-0.3,0.3-0.5c0-0.1,0-0.5,0-1l-0.1-2c0-0.1,0-0.2,0.1-0.3C170.9,204,170.9,203.9,170.9,203.8z M100.6,220.9c-2.7-1.8-4.5-3-5.3-3.8c0.3-0.3,0.4-0.5,0.4-0.6l0,0v-0.2c0-0.1,0-0.1,0.1-0.1c0.4,0.2,1,0.6,1.8,1.1c0.8,0.5,1.9,1.1,3.3,1.8c0.3,0.1,1.2,0.7,3,1.7c1.2,0.7,2.1,1.1,2.5,1.3c-0.1,0.2-0.3,0.4-0.4,0.6l-0.6,0.8C104.3,223.1,102.8,222.3,100.6,220.9z M103.6,218.5c-1.3-0.6-2.3-1.2-3.1-1.8c-1.3-0.8-2.3-1.3-2.9-1.7c-0.4-0.3-0.8-0.5-1.1-0.7h0c0-0.1,0-0.2,0.1-0.3c1.1,0.7,1.6,1,1.7,1.1c0.2,0.1,0.6,0.4,1.3,0.9c0.7,0.5,1.2,0.7,1.5,0.7c0.1-0.1,0.2-0.2,0.2-0.3c0-0.1-0.4-0.4-1.2-0.9c-0.8-0.5-1.3-0.8-1.5-0.9c-0.4-0.3-0.9-0.6-1.4-0.9c-0.2-0.1-0.4-0.2-0.6-0.3c-0.1-0.3-0.1-0.5-0.2-0.8c1.1,0.8,2.6,1.6,4.6,2.6c1.3,0.6,2.4,1.3,3.3,1.9c1.6,1.6,2.4,2.8,2.4,3.5c0,0.3,0,0.6-0.1,0.8c-3.1-1.8-4.9-2.8-5.3-3c-1.3-0.8-2.4-1.4-3.2-1.7c-0.6-0.5-1.1-0.8-1.6-1.1c-0.2-0.1-0.3-0.2-0.4-0.2c0.1-0.2,0.1-0.5,0.2-0.7c0.9,0.5,2.1,1.3,3.8,2.2c0.7,0.4,1.8,1.1,3.4,1.9c1.4,0.8,2.2,1.1,2.3,1.1c0.1,0,0.1,0,0.2-0.1c0.1-0.1,0.1-0.1,0.1-0.2C106.1,219.7,105.3,219.2,103.6,218.5z M106.5,223.9c-0.1,0-0.3,0-0.5-0.1c0.2-0.2,0.5-0.5,0.8-1.1c0.3-0.7,0.5-1.4,0.5-1.9c0-0.2,0-0.4-0.1-0.7c0.2,0.4,0.3,0.8,0.3,1.2C107.2,223.1,106.9,223.9,106.5,223.9z M158.9,213.7c0.3,0,0.6,0,0.8,0c0.2,0.3,0.5,0.8,1,1.5c0.9,1.2,1.3,2.4,1.3,3.6c0,0.4-0.5,1.3-1.5,2.7c-0.4,0-1,0.1-1.7,0.4l-3.4,0.1c-0.9,0.2-2.4,0.4-4.4,0.6c-1.7,0.1-2.7,0.2-3.1,0.2l-4.1,0c-2.8,0.5-7.6,1-14.4,1.7c-2.8,0.3-16.9,0.6-18.3,0.6c-1.1,0-1.9,0.1-2.2,0.2c-0.3,0.1-0.5,0.2-0.6,0.2c-0.3,0-0.7-0.1-1.3-0.4c0.6-0.2,1-0.8,1.2-1.7c0.1-0.5,0.2-1.2,0.2-2c0-1.6-0.6-3-1.7-4c0.4,0,0.8,0,1.4,0c1.3,0,2-0.1,2.2-0.3l12-0.6c1.4-0.2,2.5-0.3,3.4-0.4h2.2l0.1,0l1.8,0c0.3-0.1,0.5-0.2,0.7-0.1c0.2,0.1,0.5,0.1,0.8,0h2.7l7.6-0.9h1.9c1.4-0.2,6-0.7,13.8-1.5C157.7,213.6,158.2,213.7,158.9,213.7z M157.3,211.8c0,0.3-0.1,0.7-0.3,1.3c-7.5,0.7-11.9,1.2-13.3,1.4h-2.1l-7.5,0.9h-2.7c-0.2,0-0.4,0-0.7,0c-0.2,0-0.5,0-0.8,0.1h-1.8l-0.3,0.1h-2c-0.5,0.1-1.7,0.2-3.6,0.4l-12,0.6c-0.2,0.1-0.9,0.1-1.9,0.3c-1,0.1-1.6,0.2-1.9,0.2h-0.1c-0.3-0.2-0.6-0.4-0.9-0.6c-4.8-2.5-8-4.4-9.7-5.7c0.2-0.1,0.7-0.3,1.6-0.7c0.6-0.3,1-0.5,1.1-0.7c0.6,0.3,1.2,0.6,1.9,0.9c6.5,3.2,13.6,4.6,14.2,4.6c0.2,0,0.4,0,0.5-0.1c1.5-0.1,21-2.5,36.2-4.1c0.9-0.1,1.8-0.2,2.6-0.3c0.3,0.2,0.8,0.5,1.5,0.8C156.3,211.5,157,211.7,157.3,211.8z M169.6,206.1v0.7c-1.6,0.1-3.7,0.3-6.4,0.6c-5.2,0.6-9.2,1.1-12.1,1.6c-1.7,0.3-5.9,0.8-12.7,1.5c-6.8,0.8-23.7,3-23.8,3.1c-0.1,0-0.1,0.1-0.1,0.1c-1.6-0.4-4.8-1-6.9-1.9c-2.9-1.2-4.4-1.8-4.5-1.9c-1.4-0.7-3.1-1.6-5.1-2.7c-2.2-1.3-3.7-2.1-4.5-2.5c0.2-0.9,0.3-1.5,0.3-1.9c1.3,0.8,3.7,2.1,7.3,4.1c5.7,3.2,11.2,5.1,12.2,5.1c0,0,0.1,0,0.1,0c0.1,0.1,0.3,0.2,0.5,0.2c1.9,0,11.7-1.7,18.7-2.7c3.6-0.5,7.8-1.2,12.4-1.9c13.5-1.4,21.8-2.5,24.8-3.2L169.6,206.1z"/><path class="st0" d="M139.1,221l-0.3-0.2h-1.1c-0.1,0-0.3,0.1-0.5,0.2c-0.1,0.1-0.4,0.1-0.9,0c0.1-0.3-0.1-0.4-0.4-0.4l-0.7,0.3h-0.3c-0.1,0-0.1,0.1-0.1,0.2c0,0.2,0.1,0.3,0.4,0.3l0.4-0.1c0.1,0,0.2,0,0.3,0.1c0.2,0.1,0.5,0.1,0.8,0.1c0.4,0,0.7,0,0.8-0.1c0.1-0.1,0.3-0.1,0.4-0.2l0,0C138.6,221.3,139.1,221.2,139.1,221z"/><path class="st0" d="M107.2,218.1c10.1-0.6,20.3-1,30.5-1.9c7.4-0.6,14.7-1.8,22.1-1.9c0.1,0,0.8-0.3,0.5-0.3c-7.1,0.1-14.2,1.1-21.3,1.8c-10.4,1-21,1.3-31.4,2C107.4,217.8,106.8,218.1,107.2,218.1L107.2,218.1z"/><path class="st0" d="M127.2,201.6h-1.1c-0.4,0.2-0.8,0.3-1.1,0.3c-0.1,0-0.4,0-0.6-0.1c-0.2-0.1-0.4-0.1-0.5-0.1c-0.3,0-0.4,0.1-0.4,0.4l0,0.2c0,0.1,0.1,0.2,0.2,0.2l0.3-0.1c0.1,0,0.3,0,0.5,0.1c0.2,0.1,0.4,0.1,0.5,0.1c0.3,0,0.5,0,0.6,0c0.1,0,0.2-0.1,0.3-0.2l1.4,0c0.6-0.2,1.1-0.4,1.5-0.4c0.1,0,0.2,0,0.3,0.1c0.1,0.1,0.2,0.1,0.3,0.1c0,0,0.1,0,0.1-0.1c0.1-0.1,0.1-0.1,0.1-0.2c0-0.4-0.3-0.5-0.9-0.5C128.7,201.3,128.2,201.4,127.2,201.6L127.2,201.6L127.2,201.6z"/><path class="st0" d="M124.7,201c0.6-0.2,1-0.3,1.2-0.3c0.6,0,1.1,0,1.5,0.1c0.5,0,1-0.1,1.4-0.3c0.4-0.2,0.7-0.4,0.8-0.4c0.3,0,0.6,0.1,0.9,0.2h1.4l0.7-0.1h1.3l1-0.3c0.8-0.2,1.4-0.3,2-0.3c0.1,0,0.3,0.1,0.7,0.2c0.4,0.1,0.9,0.2,1.3,0.2c0.1,0,0.7-0.1,1.8-0.4c1.1-0.3,2-0.5,2.6-0.5c0.1,0,0.3,0,0.7,0.1c0.4,0.1,0.7,0.1,1.1,0.1c1.4,0,2.6-0.1,3.5-0.3c0.9-0.2,1.3-0.3,1.3-0.5c0-0.2-0.3-0.2-1-0.1c-1.3,0.2-2.6,0.3-3.9,0.3l0,0c-0.2,0-0.5,0-0.8,0c-0.4-0.1-0.9-0.2-1.5-0.2c-0.4,0-1,0.1-2,0.4c-0.9,0.3-1.4,0.4-1.4,0.5h-1c-0.2-0.2-0.9-0.4-2-0.4c-0.8,0-1.7,0.2-2.6,0.5h-1.2l-0.6,0.1h-1.5c-0.2-0.1-0.5-0.2-0.9-0.2c-0.2,0-0.6,0.1-1,0.4c-0.4,0.2-0.8,0.4-1.3,0.4c-0.4,0-0.7,0-0.8,0c-0.1-0.1-0.3-0.1-0.6-0.1c-0.3,0-0.8,0.1-1.3,0.3c-0.5,0.1-1,0.2-1.3,0.2c-0.2,0-0.4,0-0.5-0.1c-0.1-0.1-0.2-0.2-0.3-0.2c-0.2,0-0.4,0.1-0.4,0.4c0,0.3,0.4,0.4,1.2,0.4C123.7,201.2,124.2,201.1,124.7,201z"/><path class="st0" d="M135.1,202.8c0-0.3-0.5-0.4-1.5-0.2c-1.1,0.2-1.7,0.4-1.9,0.4c-0.6,0-1.1,0.1-1.5,0.3c-0.4,0.3-0.8,0.5-1.1,0.7c-0.1-0.1-0.1-0.3,0-0.7c0-0.3-0.1-0.4-0.4-0.4c-0.2,0-0.6,0.2-1.4,0.7c-0.8,0.4-1.3,0.7-1.5,0.7c-0.1,0-0.4-0.2-0.7-0.5c-0.3-0.4-0.5-0.5-0.7-0.5c-0.2,0-0.3,0.1-0.3,0.3c0,0.1,0.2,0.3,0.6,0.7c0.4,0.4,0.8,0.6,1.1,0.6c0.4,0,1.4-0.4,2.7-1.2c0,0,0,0.2,0,0.5c0.1,0.3,0.3,0.4,0.7,0.4c0.2,0,0.5-0.2,1.1-0.5c0.5-0.3,1-0.5,1.4-0.4c0.4,0,1-0.1,2-0.3l0,0C134.6,203.1,135.1,203,135.1,202.8z"/><path class="st0" d="M160.7,198.7c-0.1-0.3-0.4-0.4-0.8-0.4c-0.4,0-0.7,0-0.7,0c0,0-0.1,0.1-0.2,0.1h-0.2c-0.1-0.4-0.2-0.5-0.4-0.3c-0.2,0.2-0.3,0.4-0.3,0.5l0,0c0,0.1,0.1,0.4,0.2,1.1c0,0.1,0,0.2-0.1,0.5c0,0.1,0,0.2,0.1,0.3c0,0.1,0,0.1,0,0.2c0,0.1,0,0.2,0,0.3c0.1,0.1,0.3,0.2,0.6,0.2c0.1,0,0.2,0,0.2-0.1c0,0,0-0.1,0-0.1l0.9-0.1c0.6-0.1,0.9-0.2,0.9-0.4c0-0.1,0-0.1-0.1-0.2c-0.1-0.1-0.2-0.1-0.4,0c0.1-0.2,0.1-0.6,0.2-1.1V198.7z M160.2,199.5l-0.1,0.2c-0.1,0-0.2,0.1-0.2,0.2v0.4c-0.4-0.1-0.7-0.1-1-0.1c0.1-0.3,0.1-0.7,0.1-1.3l0.5-0.2l0,0l0.7,0V199.5z"/><path class="st0" d="M111.2,203.9c0,0.1,0,0.3,0.1,0.6c0.1,0.4,0.3,0.5,0.5,0.5c0.3,0,0.5-0.4,0.6-1.2c0-0.6-0.3-1.2-0.8-1.9c-0.5-0.6-0.8-0.7-0.8,0c0.4,0.8,0.5,1.2,0.5,1.3L111.2,203.9L111.2,203.9z"/><path class="st0" d="M171.9,185.7l-0.1-0.2c-0.2-0.1-0.4-0.3-0.7-0.6c-0.1-0.1-0.1-0.1-0.1-0.2c0,0.1,0,0.1,0,0.2c-1.4-0.5-3.1-1.1-5.3-1.7c-0.1,0-0.1,0-0.2,0.1c-1,0.2-2,0.3-2.9,0.4c0.8,0.2,2.8,0.8,6.1,1.9c-9.7,1.3-17.2,2.2-22.5,2.9c-10,1.2-24.2,3.5-31.7,4.3c-0.1,0-0.2,0.1-0.3,0.1c-1.2-0.6-3.6-1.4-5.6-2.4c-3.2-1.4-5.1-2.2-6-2.6c-2.4-1.5-4.3-2.6-5.6-3.3c-0.1-0.1-0.2-0.1-0.4-0.2c0.7-0.1,1.5-0.1,2.3-0.2c0.3,0,1.4-0.1,2.8-0.3c-0.7-0.3-1.4-0.5-2.1-0.7c-0.5-0.1-1-0.3-1.4-0.6c-2.3,0.2-3.6,0.4-3.8,0.4c-0.2,0-0.4,0.1-0.6,0.1c-0.2-0.1-0.4,0-0.4,0.4c0,0.1,0,0.1,0,0.2v0.3c0,0.7,0,1.2-0.1,1.5c-0.1,0.3-0.2,0.7-0.2,1.1c0,0.7,1.7,1.9,5,3.7c-0.2,0.1-0.4,0.1-0.6,0.2c-1.3,0.6-2,1.1-2,1.7c0,0.3,0.1,0.6,0.4,0.9c-0.2,0-0.3,0.1-0.3,0.3l0.3,0.5c0.2,0.4,0.4,0.8,0.4,1.1l0,0.3c-0.3-0.1-0.4,0-0.4,0.2c0,0.1,0.1,0.2,0.4,0.4l0,0.7c0,0.1-0.1,0.2-0.2,0.5c0,0,0,0.1,0,0.1c-0.1,0-0.1,0.1-0.1,0.2c-0.1,0-0.3,0-0.4,0c-0.8,0-1.3,0.1-1.5,0.3c-0.1,0.1-0.2,0.3-0.2,0.6c0,0.6,1.8,2.1,5.5,4.5c1.7,1.1,3.1,2,4.4,2.6c0.4,0.3,1.1,0.8,2.3,1.5c1.7,0.9,2.8,1.4,3.4,1.4c0.2,0,0.4-0.1,0.6-0.2c0.2-0.1,0.9-0.2,2.2-0.2c1.1,0,20.1-0.6,24.7-1.2c4.1-0.5,6.8-0.9,8.1-1.2l3.7-0.1c0.6-0.2,3.3-0.4,7.9-0.8l3.4,0c0.5-0.1,1-0.3,1.6-0.4c0.1,0,0.1,0,0.1,0h0.2c0.5,0,1-0.6,1.6-1.8c0.5-1,0.8-1.7,0.8-2.1c0-1.5-0.6-3.1-1.9-4.8c-0.3-0.3-0.5-0.6-0.7-0.8v-0.1c0-0.1,0-0.1-0.1-0.2v0c-0.1-0.4-0.3-0.5-0.7-0.5c-0.4,0.1-0.8,0.2-1.3,0.3l-0.2-0.2c0.3-0.4,0.2-0.8,0-1.2c-0.4-0.5-1-0.8-1.9-0.8c-0.1-0.1-0.3-0.2-0.4-0.3c6.8-0.8,11.6-1.5,14.3-2c0,0,0-0.1,0-0.1c0.1-0.1,0.3-0.3,0.3-0.5c0-0.1,0-0.5,0-1l-0.1-2c0-0.1,0-0.2,0.1-0.3C171.9,185.9,171.9,185.8,171.9,185.7z M101.6,202.7c-2.7-1.8-4.5-3-5.3-3.8c0.3-0.3,0.4-0.5,0.4-0.6l0,0v-0.2c0-0.1,0-0.1,0.1-0.1c0.4,0.2,1,0.6,1.8,1.1c0.8,0.5,1.9,1.1,3.3,1.8c0.3,0.1,1.2,0.7,3,1.7c1.2,0.7,2.1,1.1,2.5,1.3c-0.1,0.2-0.3,0.4-0.4,0.6l-0.6,0.8C105.3,205,103.8,204.1,101.6,202.7z M104.6,200.4c-1.3-0.6-2.3-1.2-3.1-1.8c-1.3-0.8-2.3-1.3-2.9-1.7c-0.4-0.3-0.8-0.5-1.1-0.7h0c0-0.1,0-0.2,0.1-0.3c1.1,0.7,1.6,1,1.7,1.1c0.2,0.1,0.6,0.4,1.3,0.9c0.7,0.5,1.2,0.7,1.5,0.7c0.1-0.1,0.2-0.2,0.2-0.3c0-0.1-0.4-0.4-1.2-0.9c-0.8-0.5-1.3-0.8-1.5-0.9c-0.4-0.3-0.9-0.6-1.4-0.9c-0.2-0.1-0.4-0.2-0.6-0.3c-0.1-0.3-0.1-0.5-0.2-0.8c1.1,0.8,2.6,1.6,4.6,2.6c1.3,0.6,2.4,1.3,3.3,1.9c1.6,1.6,2.4,2.8,2.4,3.5c0,0.3,0,0.6-0.1,0.8c-3.1-1.8-4.9-2.8-5.3-3c-1.3-0.8-2.4-1.4-3.2-1.7c-0.6-0.5-1.1-0.8-1.6-1.1c-0.2-0.1-0.3-0.2-0.4-0.2c0.1-0.2,0.1-0.5,0.2-0.7c0.9,0.5,2.1,1.3,3.8,2.2c0.7,0.4,1.8,1.1,3.4,1.9c1.4,0.8,2.2,1.1,2.3,1.1c0.1,0,0.1,0,0.2-0.1c0.1-0.1,0.1-0.1,0.1-0.2C107.1,201.6,106.3,201.1,104.6,200.4z M107.5,205.8c-0.1,0-0.3,0-0.5-0.1c0.2-0.2,0.5-0.5,0.8-1.1c0.3-0.7,0.5-1.4,0.5-1.9c0-0.2,0-0.4-0.1-0.7c0.2,0.4,0.3,0.8,0.3,1.2C108.2,204.9,107.9,205.8,107.5,205.8z M159.9,195.6c0.3,0,0.6,0,0.8,0c0.2,0.3,0.5,0.8,1,1.5c0.9,1.2,1.3,2.4,1.3,3.6c0,0.4-0.5,1.3-1.5,2.7c-0.4,0-1,0.1-1.7,0.4l-3.4,0.1c-0.9,0.2-2.4,0.4-4.4,0.6c-1.7,0.1-2.7,0.2-3.1,0.2l-4.1,0c-2.8,0.5-7.6,1-14.4,1.7c-2.8,0.3-16.9,0.6-18.3,0.6c-1.1,0-1.9,0.1-2.2,0.2c-0.3,0.1-0.5,0.2-0.6,0.2c-0.3,0-0.7-0.1-1.3-0.4c0.6-0.2,1-0.8,1.2-1.7c0.1-0.5,0.2-1.2,0.2-2c0-1.6-0.6-3-1.7-4c0.4,0,0.8,0,1.4,0c1.3,0,2-0.1,2.2-0.3l12-0.6c1.4-0.2,2.5-0.3,3.4-0.4h2.2l0.1,0l1.8,0c0.3-0.1,0.5-0.2,0.7-0.1c0.2,0.1,0.5,0.1,0.8,0h2.7l7.6-0.9h1.9c1.4-0.2,6-0.7,13.8-1.5C158.7,195.5,159.2,195.6,159.9,195.6z M158.3,193.6c0,0.3-0.1,0.7-0.3,1.3c-7.5,0.7-11.9,1.2-13.3,1.4h-2.1l-7.5,0.9h-2.7c-0.2,0-0.4,0-0.7,0c-0.2,0-0.5,0-0.8,0.1h-1.8l-0.3,0.1h-2c-0.5,0.1-1.7,0.2-3.6,0.4l-12,0.6c-0.2,0.1-0.9,0.1-1.9,0.3c-1,0.1-1.6,0.2-1.9,0.2h-0.1c-0.3-0.2-0.6-0.4-0.9-0.6c-4.8-2.5-8-4.4-9.7-5.7c0.2-0.1,0.7-0.3,1.6-0.7c0.6-0.3,1-0.5,1.1-0.7c0.6,0.3,1.2,0.6,1.9,0.9c6.5,3.2,13.6,4.6,14.2,4.6c0.2,0,0.4,0,0.5-0.1c1.5-0.1,21-2.5,36.2-4.1c0.9-0.1,1.8-0.2,2.6-0.3c0.3,0.2,0.8,0.5,1.5,0.8C157.3,193.4,158,193.6,158.3,193.6z M170.6,188v0.7c-1.6,0.1-3.7,0.3-6.4,0.6c-5.2,0.6-9.2,1.1-12.1,1.6c-1.7,0.3-5.9,0.8-12.7,1.5c-6.8,0.8-23.7,3-23.8,3.1c-0.1,0-0.1,0.1-0.1,0.1c-1.6-0.4-4.8-1-6.9-1.9c-2.9-1.2-4.4-1.8-4.5-1.9c-1.4-0.7-3.1-1.6-5.1-2.7c-2.2-1.3-3.7-2.1-4.5-2.5c0.2-0.9,0.3-1.5,0.3-1.9c1.3,0.8,3.7,2.1,7.3,4.1c5.7,3.2,11.2,5.1,12.2,5.1c0,0,0.1,0,0.1,0c0.1,0.1,0.3,0.2,0.5,0.2c1.9,0,11.7-1.7,18.7-2.7c3.6-0.5,7.8-1.2,12.4-1.9c13.5-1.4,21.8-2.5,24.8-3.2L170.6,188z"/><path class="st0" d="M140.1,202.8l-0.3-0.2h-1.1c-0.1,0-0.3,0.1-0.5,0.2c-0.1,0.1-0.4,0.1-0.9,0c0.1-0.3-0.1-0.4-0.4-0.4l-0.7,0.3h-0.3c-0.1,0-0.1,0.1-0.1,0.2c0,0.2,0.1,0.3,0.4,0.3l0.4-0.1c0.1,0,0.2,0,0.3,0.1c0.2,0.1,0.5,0.1,0.8,0.1c0.4,0,0.7,0,0.8-0.1c0.1-0.1,0.3-0.1,0.4-0.2l0,0C139.6,203.1,140.1,203,140.1,202.8z"/><path class="st0" d="M108.2,200c10.3-0.6,20.7-1,30.9-1.9c7.2-0.7,14.5-1.8,21.7-1.9c0.2,0,0.8-0.3,0.3-0.3c-7.3,0.1-14.5,1.2-21.7,1.9c-10.3,0.9-20.6,1.3-30.9,1.9C108.3,199.7,107.8,200,108.2,200L108.2,200z"/><path class="st0" d="M171.9,179l-0.1-0.2c-0.2-0.1-0.4-0.3-0.7-0.6c-0.1-0.1-0.1-0.1-0.1-0.2c0,0.1,0,0.1,0,0.2c-1.9-0.7-4.5-1.5-7.9-2.4c-2-0.8-3.9-1.5-5.7-2.1c-1.3-0.4-8-2.4-9.4-2.8c0,0,0,0,0,0c0,0-0.1,0-0.1,0c0,0,0,0-0.1,0c0,0,0,0,0,0c-3.3,0.3-52.4,5.3-53.2,5.4c-0.2,0-0.4,0.1-0.6,0.1c-0.2-0.1-0.4,0-0.4,0.4c0,0.1,0,0.1,0,0.2v0.3c0,0.7,0,1.2-0.1,1.5c-0.1,0.3-0.2,0.7-0.2,1.1c0,0.7,21.8,9.9,22.4,9.9c0.2,0,0.4,0,0.5-0.1c1.5-0.1,21-2.5,36.2-4.1c0.9-0.1,16.5-2.1,19.2-2.6c0,0,0-0.1,0-0.1c0.1-0.1,0.3-0.3,0.3-0.5c0-0.1,0-0.5,0-1l-0.1-2c0-0.1,0-0.2,0.1-0.3C171.9,179.1,171.9,179,171.9,179z M99,177.5c2.6-0.2,40.7-4.5,48.6-5.4c0,0,0,0.1,0,0.1c0.8,0.3,8.3,2.6,9.6,3.1c1.6,0.6,3.4,1.1,5.1,1.6c0.6,0.1,2.7,0.8,6.3,1.9c-9.7,1.3-17.2,2.2-22.5,2.9c-10,1.2-24.2,3.5-31.7,4.3c-0.1,0-0.2,0.1-0.3,0.1c-1.2-0.6-3.6-1.4-5.6-2.4c-3.2-1.4-5.1-2.2-6-2.6c-2.4-1.5-4.3-2.6-5.6-3.3c-0.1-0.1-0.2-0.1-0.4-0.2C97.4,177.7,98.2,177.6,99,177.5z M170.6,181.3v0.7c-1.6,0.1-3.7,0.3-6.4,0.6c-5.2,0.6-9.2,1.1-12.1,1.6c-1.7,0.3-5.9,0.8-12.7,1.5c-6.8,0.8-23.7,3-23.8,3.1c-0.1,0-0.1,0.1-0.1,0.1c-1.6-0.4-4.5-1.6-6.6-2.5c-2.6-1.2-4.3-1.7-4.8-1.9c-1-0.5-2.6-0.9-5.2-2c-2.3-1-3.7-2.1-4.5-2.5c0.2-0.9,0.3-1.5,0.3-1.9c1.3,0.8,3.7,2.1,7.3,4.1c5.7,3.2,11.2,5.1,12.2,5.1c0,0,0.1,0,0.1,0c0.1,0.1,0.3,0.2,0.5,0.2c1.9,0,11.7-1.7,18.7-2.7c3.6-0.5,7.8-1.2,12.4-1.9c13.5-1.4,21.8-2.5,24.8-3.2L170.6,181.3z"/><path class="st0" d="M24.5,214.1c-2.2-0.2-3.3,0-3.3,0.5c0,0.3,0.1,0.5,0.3,0.7c0.2,0.2,0.5,0.3,0.8,0.3c-0.4,0.3-0.6,0.6-0.6,0.7c0,0.4,0.2,0.6,0.6,0.6c1.2,0,2.4-0.1,3.4-0.4c1.4-0.3,2.1-0.8,2.1-1.4C27.8,214.6,26.7,214.2,24.5,214.1L24.5,214.1z"/><path class="st0" d="M35.3,217.5c1.1,0,3-0.3,5.8-0.8c2.7-0.5,4.3-0.8,4.7-0.9c2.1-0.2,4.1-0.4,5.9-0.7c3.6-0.5,5.4-1,5.4-1.5c0-0.3-2.4-0.1-7.2,0.6c-7.1,1.2-12.2,1.9-15.1,2.2c-0.4,0.1-0.6,0.3-0.6,0.5c0,0.2,0.1,0.4,0.2,0.4C34.6,217.4,34.8,217.5,35.3,217.5L35.3,217.5z"/><path class="st0" d="M35.1,213.8c-2.5,0.9-4.1,1.3-4.6,1.3l0,0c-0.4,0-0.6-0.2-0.6-0.5c0-0.2,1.4-0.7,4.1-1.6c2.7-0.9,10.9-3,11.8-3.2c0.7,0.3,2,0,2,0.7c0,0.7-2.6,0.4-2.6,0.4C45.2,210.9,37.5,212.9,35.1,213.8z"/><path class="st0" d="M104,233.4c0-0.3-2-1.3-5.9-2.9c-2.5-1-4.3-1.8-5.7-2.1c0.3,0,0.6-0.1,0.9-0.1c6.3-0.9,9.5-1.6,9.5-2.2c0-0.4-0.8-0.7-2.3-1c-2.8-0.4-4.4-0.6-4.8-0.7c-0.4-0.1-1.1-0.4-2-0.8c-0.1,0-0.2-0.1-0.3-0.1c0,0,0-0.1,0-0.1v-0.4c0.2-0.3,0.3-0.5,0.3-0.6c0-0.1-5.1-1.7-15.2-4.7c-10.4-3.1-28.3-9.6-32.4-10.9c0,0-0.1,0-0.1,0.1c0,0,0,0,0-0.1c-0.6,0.1-0.9,0.1-1.1,0.1c-3.9,0.4-18.1,2.3-22.4,3.2c-5.5,1.2-10.1,2-14,2.6c-0.1,0.1-0.3,0.2-0.5,0.4C8,213.2,8,213.3,8,213.3c0,0.1,0.8,0.5,2.5,1.1l-0.3,0.1c-1.9,0.5-2.8,0.8-2.8,0.9c0,0.4,2.1,1.2,6.4,2.3c0.3,0.1,0.6,0.2,0.9,0.2c-0.1,0.1-0.3,0.2-0.5,0.4c-0.1-0.2-0.3-0.4-0.7-0.4c-0.2,0-0.3,0-0.3,0.1H8.8c-0.1,0.1-1.6,0.3-4.5,0.8c-2.9,0.5-4.3,1-4.3,1.3c0,0.3,1.9,1.1,5.7,2.4l0,0c-0.3,0.1-0.7,0.2-1.1,0.3c-1.9,0.6-2.8,1.1-2.8,1.4c0,0.2,1.3,0.6,3.9,1.4c0,0,0,0.1,0,0.1c0.2,0,0.3,0,0.5,0c1,0.1,1.6,0.4,1.8,0.8c1.7,0.6,4.8,1.8,9.5,3.7c7.6,3.1,12.3,5,14.2,5.8c0.9,0.3,5.4,2.3,13.5,5.7c0.8,0.3,2.5,1.4,5,3.3c1.3,0.9,2.5,1.8,3.6,2.6c0.7,0,3.3-0.6,7.7-1.7c4.9-1.3,8-2,9.1-2.2c3-0.7,5.3-1.2,7-1.5c2.9-0.6,7.7-1,14.2-1.4l9,0.4c0.3,0,0.5-0.1,0.6-0.3c0.1-0.1,0.1-0.2,0.1-0.3c0-0.2-1.5-1.1-4.5-2.5c-0.9-0.4-1.7-0.8-2.3-1.1h3.2c0.1,0.1,0.3,0.1,0.6,0.1h4.1c0.2,0,0.4-0.1,0.5-0.3c0-0.1,0-0.2,0-0.3c-0.8-0.8-1.6-1.5-2.4-2c-0.2-0.2-0.4-0.3-0.6-0.4h2.9C103.8,233.8,104,233.6,104,233.4z M22.6,211.1c3.9-0.8,17.9-2.7,22-3.1c0.4-0.1,0.8-0.1,1.2-0.2c4,1.4,18.5,6.7,26.6,9.2c7.5,2.4,13.8,4.1,18.8,5.3c-2.4,0.5-5.4,1.3-9.2,2.3c-3.1,0.8-5.6,1.4-7.7,1.8c-1.7,0.3-3.9,0.9-6.6,1.6c-0.3,0.1-1.5,0.6-3.5,1.6c-1.8,0.9-2.9,1.3-3.4,1.3c-0.3,0-5.6-2-16-5.9c-12.6-4.6-23.7-8.4-33.3-11.2l-0.4-0.1C16.4,212.4,20.2,211.6,22.6,211.1z M10.8,215.7c0.9-0.3,1.4-0.5,1.7-0.6l0,0c1,0.3,2.2,0.7,3.6,1.2c7.4,2.4,13.3,4.2,17.4,5.5c5.3,1.9,9.7,3.5,13.4,4.8c8.7,3.6,13.4,5.3,14.1,5.3c1.3-0.6,2.8-1.2,4.5-1.8c3.4-1.3,6.5-2.2,9.2-2.7c0.7-0.1,3.6-0.9,8.7-2.3c2.6-0.7,4.7-1.2,6.3-1.5v0.1c0,0.5,3.2,1.3,9.6,2.4l0.2,0.1c-4.7,0.5-8.4,0.9-11,1.4c-1.9,0.3-4.8,0.9-8.8,1.8c-1.2,0.3-4,1-8.5,2.2c-4.5,1.1-8.2,1.6-11.1,1.6c-0.2,0-1.8-0.6-4.8-1.8c0.1-0.1,0.1-0.2,0.1-0.3c0-0.1-0.9-0.4-2.8-0.9c-2.3-0.9-5.2-2.1-8.5-3.5C31.6,221.8,20.5,218.1,10.8,215.7z M16.1,218.3c3.2,0.8,5,1.3,5.5,1.5h0c4.5,1.5,9,3.1,13.6,4.8c4,1.6,7.2,2.9,9.7,3.8c-2-0.5-4.4-1-7-1.6c-6.3-1.4-14.8-3.3-25.6-5.7C14.4,219.8,15.6,218.8,16.1,218.3z M97.8,239.9c-10.7,0.3-17.3,0.7-19.8,1.3c-0.2,0.1-1.1,0.3-2.5,0.7c-1,0.3-2.5,0.6-4.3,0.8c-0.7,0.1-3.2,0.8-7.5,2c-4.4,1.2-7.6,1.8-9.7,1.8c-0.1,0-1.4-0.9-3.9-2.6c-2.7-1.9-4.6-3.1-5.6-3.6c-3.8-1.8-8.3-3.6-13.5-5.5c-3-1.2-7.6-3.1-13.8-5.9c-0.1,0-0.8-0.3-2-0.8l0,0c7.1,1.8,12.3,3.2,15.6,4.2c2.8,0.8,7.9,2.2,15.3,4.1c1.2,0.3,2.2,0.6,3,1c2.1,0.8,3.4,1.3,3.9,1.4c0.6,0.2,1.8,0.8,3.5,1.8c0.7,0.4,1.4,0.8,2,1.2c0.1,0.2,0.3,0.3,0.6,0.3c3.4-0.8,5.8-1.3,7-1.4l6.3,0c4.1-0.7,7.5-1.2,10.1-1.7c4.4-0.8,7.6-1.4,9.7-1.9C93.2,237.8,95,238.7,97.8,239.9z M101.2,236c-2,0-3.1,0-3.2-0.1h-4.6c-0.2,0-0.4,0.1-0.6,0.1h0c-0.3,0-0.4,0-0.5,0.1c-5.6,1.1-12.1,2.3-19.4,3.6l-6.3,0c-1.1,0.2-2.8,0.4-5.3,0.7c-0.8,0.1-1.5,0.3-1.9,0.4c-1.4-1.8-9.1-4.6-23.2-8.4c-8.3-2.3-18.9-5-31.9-8.3c1.8-0.3,2.8-0.7,3.1-1.1c1.7,0.5,3.7,1.2,6.1,1.9v0c5.2,1.4,9.9,2.8,14.2,4.2c3,1,5.9,1.8,8.5,2.5c4.1,1.1,6.7,1.8,7.6,2c3,1.1,5.6,2,7.9,2.8c4.4,1.6,7.1,2.4,8.1,2.4c1.4,0,4.3-0.4,8.7-1.3c4.2-0.8,6.3-1.3,6.4-1.3l24.1-2.3c0.2,0.2,0.4,0.4,0.8,0.7C100.6,235.5,101.1,235.9,101.2,236z M87.5,234.2c-5.6,0.7-9,1-10.1,1.1c-1.7,0.1-4.8,0.6-9.2,1.4c-4.1,0.7-6.9,1.1-8.3,1.1c-0.3,0-2.6-0.7-6.9-2.2c-5.1-1.7-7.9-2.7-8.5-2.8c-2.2-0.6-4.5-1.3-6.9-1.9c-2.4-0.6-5-1.4-8-2.2c-12.3-3.8-21.2-6.5-26.6-8.3l-0.1,0l0,0c1.7-0.2,3.7-0.6,6-1.2h4.4c-0.6,0.3-1.4,0.8-2.5,1.3c-1,0.5-1.4,0.7-1.4,0.8c0,0.5,2.6,1.2,7.9,2.3c8.3,1.7,13.2,2.7,14.7,3c9.2,2.2,16.3,3.9,21.2,5.1h0.1c0.4,0.2,0.9,0.4,1.4,0.6c3.3,1.4,5,2,5.3,2c2.8,0,6.9-0.7,12.2-2c5.5-1.5,8.9-2.4,10.4-2.7c2.7-0.3,5.2-0.7,7.6-1c0.4,0.4,2,1.1,4.7,2c3.5,1.1,5.5,1.8,6.1,2l0.3,0.2C97.4,233.1,92.9,233.5,87.5,234.2z"/><path class="st0" d="M59,217.4c-0.4,0.2-0.6,0.4-0.6,0.6c0,0.5,1.2,1.2,3.6,2c2.5,0.8,4,1.3,4.3,1.4c0,0,1.3,0.5,3.9,1.6c1.8,0.7,3,1,3.6,1c3.3-0.3,5.8-0.7,7.4-1c1-0.2,1.8-0.3,2.1-0.5c0.4-0.2,0.6-0.5,0.6-0.8c0-0.6-3-1.7-9-3.1c-1.3-0.3-2.8-0.7-4.5-1.3c-1.5-0.4-3.4-0.5-5.8-0.5h-3.9C60.3,217,59.6,217.2,59,217.4L59,217.4z"/><path class="st0" d="M62.7,215.2c0-0.6-3.5-0.3-10.5,0.8c-7,1.1-10.5,1.9-10.5,2.4c0,0.5,0.4,0.7,1.2,0.7c0.5,0,2.1-0.3,4.7-1c2.8-0.7,4.5-1.1,5.2-1.2l5-0.6c1.6-0.1,2.7-0.2,3.4-0.2C62.2,215.9,62.7,215.6,62.7,215.2L62.7,215.2z"/><path class="st0" d="M57.4,219.2c-0.4,0.1-1.3,0.3-2.8,0.6c-3.2,0.1-5.2,0.3-6.1,0.4c-0.9,0.1-1.3,0.4-1.3,0.8c0,0.3,0.2,0.5,0.7,0.7h1.3c0.3-0.2,0.5-0.5,0.5-0.7c2-0.1,3.7-0.2,5.1-0.3c0.4,0,0.7-0.1,1-0.2c0.3-0.1,0.6-0.2,0.9-0.2c0.2,0.2,0.3,0.4,0.5,0.4c0.4,0,0.6-0.2,0.8-0.5c0.1-0.3,0.1-0.5,0.1-0.5C58.1,219.3,57.9,219.1,57.4,219.2L57.4,219.2z"/><path class="st0" d="M69.4,225c0-0.5-0.7-0.6-2-0.2c-1.3,0.4-2,0.7-2,0.9c0,0.3,0.2,0.5,0.5,0.5C68.3,225.6,69.4,225.2,69.4,225L69.4,225z"/><path class="st0" d="M64.3,223.4c-0.1,0-0.5,0.1-1,0.1l-1.5,0c0-0.1,0-0.1,0-0.3c0-0.5-0.8-0.7-2.5-0.4c-1.6,0.3-2.4,0.6-2.4,0.8c0,0.3,0.3,0.6,1,0.6c1.4,0.1,2.8,0.2,4.2,0.4l-0.1,0.1c-0.1,0-0.1,0.1-0.1,0.2c0,0.1,0.1,0.3,0.2,0.4c0.1,0.1,0.2,0.1,0.4,0.1c0.6,0,1.1-0.3,1.6-0.8c0.3-0.5,0.5-0.8,0.5-0.8C64.7,223.6,64.6,223.4,64.3,223.4L64.3,223.4z"/><path class="st0" d="M61.4,221.1c0-0.4-1.5-0.4-4.5,0c-3,0.4-4.5,0.8-4.5,1.3c0,0.7,0.8,1,2.5,1c0.3,0,0.4-0.1,0.4-0.4c0-0.2-0.1-0.3-0.2-0.6c1.6-0.2,2.8-0.3,3.7-0.5C60.6,221.7,61.4,221.4,61.4,221.1L61.4,221.1z"/><path class="st0" d="M45.4,212.7c0,0,0.7-0.1,1.9-0.3c0.3,0.1,0.6,0.3,0.9,0.3c1.1,0.2,2.1,0.3,3.2,0.2c-0.2,0.1-0.5,0.2-0.8,0.2c-1.4,0.3-2.8,0.5-4.3,0.6c-0.3,0-1.4,0.2-3.2,0.6c-1.8,0.4-2.9,0.6-3.3,0.6h0c-0.5,0-0.7-0.2-0.7-0.6C39.1,213.7,41.2,213.2,45.4,212.7z"/><path class="st0" d="M197.9,62.5c0,0,6.2-2.2,6.5-6.3c0.2-4.1-1.9-13.1,0.8-21.1c2.7-8,9.6-13.1,16-15.5c6.4-2.4,12.4-5,11.9-3.5c-0.4,1.6-3.4,16.9,7.2,26.1c10.6,9.2,24.5,11.9,26.7,19.1c2.2,7.2,1.8,18.8,3.6,20.8c1.8,2-1.2,3.9-1.9,4.3s-14.5,5.4-16.2,9.4c-1.6,4-2.7,6.2-0.2,5.5c2.5-0.7,10.4-5.2,12.9-6.3s5.4-0.8,6.7,0.8c1.3,1.6,7.2,8.7,7.8,9.5s1.6,3.2,0.7,4.5c-0.9,1.4-1,4,0.4,5c1.3,1,12.9,17,14.8,21.5s2.8,16.4,4.7,17.1c1.9,0.7,3.7,0.9,5.5-1.2c1.8-2.1,1.9-3.2,3.9-2c1.9,1.2,3.9,2.7,5.2,0.1c1.3-2.6,1.7-2.8,3.4-2.1c1.7,0.8,2.2-1.1,2-2c-0.1-0.9,0.7-18.1-2.8-27c-3.5-8.9-13.3-25.2-15.9-32c-2.7-6.8-9-41.8-9.6-44.9c-0.6-3.1-3.9-32.6-21-38.1s-29.6-3.1-36.2,0C228.1,7.5,228,9,219,10.1c-9,1-16.5,6.4-20.8,20.1c-4.3,13.7-1.8,18.2-1.2,24.2S195.5,63.6,197.9,62.5z"/><path class="st0" d="M200.3,150.6c0,0,2.4-13.7,3.9-17.7c1.5-4,6.9-14.4,7.5-17.8c0.6-3.3,3.8-12.2,5.3-12.1c1.5,0.1,11.7,0.5,14.2,0.5c2.5,0.1,6.9,0.7,7.2-1.6s-3.1-8.5-14.1-11.4s-15.9-9.7-18.9-13.3c-3-3.7-6.7-3.4-7.1-0.6S191.1,95.8,183,111s-5.5,30.6-3.6,34.4c1.9,3.8,2.9,3.6,5,3.9c2.1,0.3,3,4,3.8,3.9c0.9-0.1,2-2.1,2.8-0.9c0.9,1.2,1.5,3.6,3,2.9s5.2,0.9,5.7-1.8C200.3,150.6,200.3,150.6,200.3,150.6z"/><path class="st0" d="M223.3,37.5c-0.9-1.8-3.7-2.7-5.6-2.8c-2.6-0.1-4.6,1.8-6.3,3.5c-0.6,0.6,0.8,0.8,1.2,0.4c1.6-1.6,3.3-3.3,5.8-2.7c1.3,0.3,2.9,1,3.5,2.2C222.3,38.6,223.6,38.1,223.3,37.5L223.3,37.5z"/><path class="st0" d="M233,14.6c-4.2,11.1,0.3,22.8,9.1,30.2c4.8,4,10.2,6,15.8,8.5c6.8,3,8.9,7.9,9.5,15c1.1,11.8,4.5,22.6,11.6,32.2c3.3,4.5,7.3,8.5,11.8,11.8c4.9,3.6,10.6,6.4,12.7,12.5c0.1,0.3,1.5-0.1,1.4-0.4c-1.7-4.9-5.6-7.7-9.8-10.5c-5.2-3.6-9.8-7.6-13.7-12.6c-7.3-9.3-11.4-20.3-12.4-31.9c-0.4-4.8-0.7-9.9-4.4-13.4c-4.4-4.2-11.5-5.2-16.6-8.4c-11.2-7-18.4-20.1-13.5-33.2C234.5,14.1,233.2,14.2,233,14.6L233,14.6z"/><path class="st0" d="M232.6,15.3c-12.4,3.8-27.7,9.5-29,24.5c0,0.5,1.4,0.2,1.4-0.2c1.2-14.5,15.7-20,27.7-23.7C233.6,15.6,233.5,15,232.6,15.3L232.6,15.3z"/><path class="st2" d="M199.2,39.7c-0.4,0.9,2.6,2.4,3.6,2.5c1,0.1,1.9-0.8,2-1.7C204.9,39.5,199.6,38.8,199.2,39.7z"/><path class="st0" d="M198.5,39.6c-0.5,1.5,2,2.5,3,2.9c0.8,0.3,1.6,0.4,2.4,0.1c0.8-0.3,1.7-1.2,1.7-2.1c-0.1-1.2-2.2-1.5-3.1-1.6c-1-0.1-3.1-0.4-3.9,0.6c-0.5,0.8,0.8,1,1.2,0.5c0.3-0.5,3.6,0.1,4.1,0.5c0.3,0.3,0,0.8-0.4,1c-0.5,0.3-0.9,0.1-1.4-0.1c-0.3-0.1-2.4-1.1-2.2-1.6C200.2,39,198.7,38.9,198.5,39.6z"/><path class="st0" d="M199.9,70c0.3-0.1,0.6-0.3,0.8-0.4c0.2-0.1,0.4-0.3,0.2-0.5c-0.3-0.2-0.8,0-1,0.2c-0.3,0.1-0.6,0.3-0.8,0.4c-0.2,0.1-0.4,0.3-0.2,0.5C199.1,70.3,199.6,70.1,199.9,70L199.9,70z"/><path class="st0" d="M202.2,42.7c0.2,2.4,0.4,4.8,0.5,7.2c0.2,2.8,1.1,6.2-0.3,8.7c-1.6,2.8-5.7,3.6-7.8,6.2c-3.2,4.1-1.6,10.4,4,10.5c1.4,0,2.9-0.6,4.2,0.1c1.6,0.8,2.8,3.5,3.8,5c2.1,3.2,3.9,5.3,7.5,6.9c7.3,3.2,24.5,5.4,23.4,16.2c0,0.2,1.4,0.1,1.4-0.4c0.9-8.7-9.3-11-15.6-13.3c-5-1.9-10.5-3.1-13.8-7.5c-1.6-2.1-3-5.8-5.3-7.3c-3-1.9-7.4,1.1-9.3-3.1c-2.8-6,3.6-8.9,7.5-11.6c1.8-1.2,2-1.4,2.3-3.6c0.6-4.3-0.7-10-1.1-14.4C203.7,42,202.2,42.3,202.2,42.7L202.2,42.7z"/><path class="st0" d="M251.8,101c-1.5-8.6,14.2-12,19.7-15.9c0.8-0.6-0.4-0.9-0.9-0.5c-5.6,4-21.8,7.4-20.2,16.8C250.4,102,251.9,101.6,251.8,101L251.8,101z"/><path class="st0" d="M237.1,77.9c0.6,2.6,5,3.5,7.1,3.2c2-0.2,6-1.7,6.5-4c0.1-0.3-1.3-0.1-1.4,0.3c-0.6,2.7-5.7,3.4-7.6,2.7c-1.1-0.4-2.9-1.3-3.2-2.6C238.5,77.2,237,77.5,237.1,77.9L237.1,77.9z"/><path class="st0" d="M197.7,75.1c-1.7,22.6-23.9,38.3-21.1,61.9c0.4,3,1.4,11.5,4.7,13.1c0.9,0.4,1.5-0.3,2.4-0.1c1,0.4,1.9,0.8,2.9,1.3c0.1,0.5,0.2,0.9,0.4,1.3c0.4,0.3,0,0.7,0.7,1c0.4,0.2,0.9-0.1,1.4,0c1,0.3,1.1-0.5,2.4,0.5c0.7,0.5,0.2,1.3,1.1,1.5c1.9,0.6,4.9-0.3,7-0.4c0.7,0,1.2-0.9,0.2-0.9c-0.9,0.1-2.2-0.5-3.1-0.6c-0.5-0.1-0.9,0.5-1.4,0.5c-5.7-0.3-0.7-0.7-2.9-1.6c-0.3-0.1-0.8-0.5-1.1-0.7c-1.5-0.7-1.3,1.5-3.1-0.6c-1.6-1.9-0.8-2.3-3.7-2.4c-2.6-0.1-2.2,0.9-3.8-2.5c-0.5-1.2-1-2.4-1.3-3.6c-0.8-2.8-1.3-5.6-1.5-8.5c-1.4-22.4,19.6-37.7,21.3-59.3C199.2,74.3,197.7,74.5,197.7,75.1L197.7,75.1z"/><path class="st0" d="M216.3,102.9c-1.1,2.1-2.2,4.1-3.4,6.2c-1,1.8-2.9,4.2-3.2,6.2c-0.3,2,0.4,2.7,1.8,3.8c5.7,4.3,14.8,4.5,21.6,4.8c14.6,0.7,31.3,1.5,43.3-8.6c2-1.7,5.1-4.1,5.2-6.9c0.2-2.6-2.1-4.6-3.6-6.4c-2.9-3.5-6-10.4-11.5-8.3c-3.4,1.3-6.2,4-9.6,5.4c-4.4,1.8-9.1,2.8-13.8,3.4c-8.6,1-17.2,0.5-25.8,0c-0.7,0-1.5,1.1-0.5,1.1c10.6,0.7,21.4,1.3,31.8-0.8c5.1-1,9.9-2.8,14.3-5.5c1.1-0.6,2.5-2,3.7-2.4c3.8-1,5.4,2,7.2,4.2c1,1.2,2,2.4,3,3.6c1.9,2.3,2.7,2.7,2.5,5.8c-0.6,6.9-10.8,11-16.6,12.7c-6.8,1.9-13.9,2.1-20.9,1.9c-7.1-0.2-14.5-0.2-21.4-2c-1.6-0.4-3.2-0.9-4.7-1.5c-3.6-1.5-4.2-3.8-2.9-7.2c1.2-3.2,3.4-6.3,5.1-9.3C218.1,102.4,216.6,102.3,216.3,102.9z"/><path class="st0" d="M219.9,103.5c-2.4,5.2-4.4,10.5-6.3,15.9c-0.1,0.2,0.6,0.1,0.7-0.1c1.9-5.4,3.9-10.7,6.3-15.9C220.7,103.2,220,103.3,219.9,103.5L219.9,103.5z"/><path class="st0" d="M224.6,103.5c-3,5.4-5.2,11.3-7.1,17.3c-0.1,0.2,0.7,0.1,0.7-0.1c1.8-5.9,4.1-11.8,7.1-17.2C225.4,103.3,224.7,103.4,224.6,103.5L224.6,103.5z"/><path class="st0" d="M229.3,103.8c-1.4,6.2-2.8,12.4-4.5,18.6c-0.1,0.2,0.7,0.1,0.7-0.1c1.7-6.1,3.1-12.4,4.5-18.6C230.1,103.4,229.3,103.6,229.3,103.8L229.3,103.8z"/><path class="st0" d="M235.8,104.1c-0.7,6.2-1,12.5-1,18.8c0,0.1,0.7,0,0.7-0.2c0-6.3,0.3-12.5,1-18.8C236.5,103.8,235.8,103.9,235.8,104.1L235.8,104.1z"/><path class="st0" d="M242.8,103.2c0.1,6.9,0.2,13.7,0.3,20.6c0,0.1,0.7,0,0.7-0.2c-0.1-6.9-0.2-13.7-0.3-20.6C243.5,102.8,242.8,103,242.8,103.2L242.8,103.2z"/><path class="st0" d="M248.8,102.5c0.4,7.2,1.9,14.2,4.5,20.9c0.1,0.3,0.9,0.1,0.7-0.2c-2.6-6.6-4.1-13.7-4.5-20.8C249.6,102.1,248.8,102.2,248.8,102.5L248.8,102.5z"/><path class="st0" d="M254.5,100.6c2.7,6.8,4.5,14.9,8.8,21c0.2,0.3,0.9,0,0.7-0.3c-4.2-6-6-14.1-8.7-20.9C255.1,100.1,254.4,100.3,254.5,100.6L254.5,100.6z"/><path class="st0" d="M260,98.1c2,7.3,5.8,14.2,9.8,20.6c0.1,0.2,0.8,0,0.7-0.3c-4-6.3-7.8-13.2-9.8-20.5C260.6,97.7,259.9,97.9,260,98.1L260,98.1z"/><path class="st0" d="M264.2,95.9c4.9,5.4,7.7,12.9,11.3,19.1c0.1,0.2,0.8-0.1,0.7-0.2c-3.6-6.3-6.4-13.7-11.3-19.1C264.7,95.5,264.1,95.8,264.2,95.9L264.2,95.9z"/><path class="st0" d="M193.7,170.7c2.1,0.8,4.4-0.8,4.7-3c0.3-1.8-1.2-4.6-3.3-3.6c-1.4,0.7-2.6,2.3-3.5,3.6c-0.3,0.4-0.8,0.9-0.6,1.4C191.2,169.9,193,170.4,193.7,170.7c0.3,0.2,1.7-0.4,1.2-0.6c-0.8-0.4-2.8-0.9-2.4-1.9c0.3-0.8,1.3-1.6,1.8-2.3c0.3-0.4,0.7-0.7,1-1.1c0.1-0.1,0.4-0.3,0.5-0.4c0.2-0.1,0.1-0.1-0.4,0.2c0.2,0.1,0.3,0.2,0.4,0.3c0.7,0.6,1.1,1.5,1.1,2.4c0,1.1-0.6,3.3-2.1,2.7C194.5,170,193.2,170.5,193.7,170.7z"/><path class="st0" d="M198.4,166.2c1.7-2.1,3.2-4.3,5-6.3c1.7-1.8,1.9-1.8,4-1.3c4.1,0.9,8.1,1.8,12.2,2.8c9.1,2.2,20.5,3.9,28.5,9.1c0.5,0.3,1.8-0.4,1.1-0.8c-3.9-2.6-8.9-3.8-13.3-5.1c-6.4-1.9-12.9-3.5-19.4-5c-3.1-0.7-7.2-2.5-10.4-2.3c-4,0.2-6.6,6-8.9,8.7C196.7,166.5,198.1,166.7,198.4,166.2L198.4,166.2z"/><path class="st0" d="M282.8,157.5c-0.4,1.4-0.8,3.9,1.2,4.1c1.2,0.1,2.5-0.7,3.1-1.6c1.1-1.7,1.1-4.7,0.1-6.5c-1.1-2-3.4-2.4-5.5-2.3c-5.1,0.3-7.5,5.2-8.1,9.7c-0.2,1.7,0.2,2.7,2,1.9c1.9-0.9,3.2-4,3.8-5.8c0.1-0.3-1.3,0-1.4,0.3c-0.9,1.4-2.8,7.2,0.5,6.6c3.2-0.6,3-5,3.2-7.5c0-0.2-1.4,0-1.4,0.4c-0.2,1.7-0.8,5.9,2,5.6c2.4-0.3,2-3.5,2.1-5.2C284.2,156.9,282.8,157.1,282.8,157.5c0,0.9,0,1.7-0.1,2.5c-0.1,0.8-0.1,2.4-0.9,1.1c-0.7-1.2-0.3-3.4-0.2-4.7c-0.5,0.1-1,0.3-1.4,0.4c-0.1,0.8-0.4,7.1-1.9,6.2c-0.4-0.2-0.2-2-0.1-2.4c0.1-1.3,0.5-2.5,1.2-3.6c-0.5,0.1-1,0.2-1.4,0.3c-0.4,1.2-1.1,2.3-1.7,3.4c-0.1,0.2-0.9,1.6-1.3,1.3c-0.2-0.2,0.1-1.5,0.2-1.8c0.5-3.3,2.2-8.2,6.2-8.4c3.4-0.2,5.2,2.3,5.2,5.4c0,0.8-0.2,2.9-1,3.4c-2,1.3-1.4-2.5-1.2-3.2C284.3,156.9,282.9,157.1,282.8,157.5z"/><path class="st0" d="M275,156.4c-1.1,0.5-2.3,0.5-3.5,0.8c-0.7,0.1-1.6,0.4-1.9,1c-0.9,1.6,2.2,1.3,2.9,1.8c0.4,0.3,1.7-0.3,1.4-0.5c-0.6-0.4-3-0.2-2.9-1.2c0.1-0.7,1.5-0.6,2-0.7c0.9-0.1,1.8-0.3,2.7-0.7C276.5,156.5,275.6,156.1,275,156.4L275,156.4z"/><path class="st0" d="M273.7,158.8c-8.3,2.4-17.5,3.7-24.3,9.5c-2.9,2.5-3.1,4.7-3.6,8.5c-0.8,6.1-1.1,12.3-1.1,18.5c0.5-0.3,1-0.6,1.5-0.8c-1.8,0-6.1-3.6-7.7-4.5c-2.7-1.6-5.3-3.1-8-4.7c-4.6-2.6-9.1-5-14.5-5.3c-6.2-0.3-12.1,1.2-18.2-0.3c-1.7-0.4-5.7-0.9-7-2.1c-1.3-1.3,2.3-5.5,3.3-7c0.6-1-1.6-0.9-2.1-0.2c-1.5,2.4-3.1,4.8-4.6,7.1c-0.2,0.4,0.1,0.7,0.4,0.8c3.7,1.5,7.6,2.8,11.5,3.4c5.6,0.9,11.2-0.7,16.8-0.2c6.4,0.6,12,4.5,17.4,7.7c2.7,1.6,5.4,3.2,8,4.7c1,0.6,2.5,2,3.7,2c0.4,0,1.5-0.2,1.5-0.8c0-4.3,0.1-8.6,0.5-13c0.4-5,0.4-10.6,4.6-13.9c6.3-4.9,14.7-6,22.1-8.1C275.4,159.8,275.1,158.4,273.7,158.8L273.7,158.8z"/><path class="st0" d="M287.5,157.6c4.4-0.7,9.7-1.5,14-0.4c3.1,0.8,2.9,1.7,3.4,4.7c0.3,1.9,0.7,3.8,1.1,5.7c1.9,7.9,5,15.5,9.4,22.4c0.5-0.4,1.1-0.8,1.6-1.2c-12.5-4.1-26-7.4-39.2-7.7c-5.3-0.1-10.1,0.9-14.7,3.3c-5.8,3.1-10.7,7.6-17,9.7c-1.3,0.4-0.9,1.9,0.4,1.5c11.1-3.7,18.4-13.2,30.9-12.9c13,0.3,26.2,3.5,38.5,7.5c0.6,0.2,2.2-0.3,1.6-1.2c-6.2-9.8-9.8-21-10.9-32.5c0-0.3-0.5-0.5-0.7-0.5c-6.1-0.7-11.9-1-18.1,0C286.5,156.3,286,157.9,287.5,157.6L287.5,157.6z"/><path class="st0" d="M244.2,200.4c-0.6-1.4,0.8-2.9,2.1-3.4c1.3-0.5,3.5,0.7,3,2.3C248.8,200.9,245.1,201.7,244.2,200.4c-0.4-0.5-1.8,0-1.4,0.5c1.5,2.3,8,0.6,8-2.2c0-2.2-2.9-3.1-4.6-2.5c-1.7,0.5-4.4,2.6-3.4,4.6C243,201.4,244.4,200.9,244.2,200.4z"/><path class="st0" d="M244.6,200.5c-11.1-2.9-22.2-5.5-33.3-8.3c-7.8-2-15.6-3.2-23.2,0.1c-0.1,0-0.7,0.4-0.4,0.5c5.8,2.1,12.4,1.8,18.4,3.1c8.3,1.7,16.5,3.4,24.8,5.1c4.1,0.8,8,1.8,11.7,3.6c1.8,0.8,3.2,1.4,5.3,1.2c4.6-0.5,7.4-4.4,12.3-4.1c7.7,0.4,15.6-0.7,23.3-1.1c8.4-0.5,16.7-0.7,25.1-0.7c1.4,0,6.3,0.4,6.9-1.9c0.9-4-8.8-2.3-10.1-2.2c-18.3,1.2-36.5,2.4-54.8,3.7c-0.5,0-2.4,0.9-1,0.8c16.1-1.1,32.1-2.1,48.2-3.2c1.7-0.1,15.2-1.8,15.5,0.6c0.3,2.4-10.4,1.5-12,1.5c-7.8,0.2-15.6,0.6-23.4,1.1c-4.4,0.3-8.9,0.6-13.3,0.7c-2.6,0.1-5.3-0.5-7.8,0c-0.8,0.2-1.5,0.5-2.3,0.8c-2.9,1.1-6.7,3-9.8,2.2c-1.4-0.4-2.7-1.3-4-1.7c-7.7-2.6-16.2-3.7-24.2-5.3c-7-1.5-13.9-2.8-21-3.5c-1.6-0.2-3.7,0.6-2-1.3c1.4-1.5,3.6-1,5.5-0.9c2.2,0.1,4.3,0.5,6.5,1c3.9,0.8,7.7,1.9,11.5,2.9c8.6,2.2,17.2,4.2,25.8,6.4C243.3,201.4,245.1,200.6,244.6,200.5L244.6,200.5z"/><path class="st0" d="M315.3,189.5c-1.6,1.9-2.6,4.7-3.1,7.1c-0.1,0.5,2,0.1,2.1-0.4c0.4-2.3,1.4-5.1,2.9-6.9C317.7,188.8,315.6,189.1,315.3,189.5L315.3,189.5z"/><path class="st0" d="M187.8,177.6c0.1,4.6-0.1,9.7,1.5,14.1c0.1,0.3,1.5-0.1,1.4-0.4c-1.6-4.4-1.4-9.5-1.5-14.1C189.3,177,187.8,177.2,187.8,177.6L187.8,177.6z"/><path class="st0" d="M189.4,185c1.1-0.3,2.2-0.5,3.4-0.8c0.5-0.1,0.3-0.6-0.1-0.5c-1.1,0.3-2.2,0.5-3.4,0.8C188.8,184.5,189,185.1,189.4,185L189.4,185z"/><path class="st0" d="M189.5,187.8c2.7-0.7,6.4-1.1,9.1-0.3c0.3,0.1,0.9-0.3,0.4-0.5c-2.9-0.8-6.8-0.4-9.7,0.3C189,187.4,189.1,187.9,189.5,187.8L189.5,187.8z"/><path class="st0" d="M196,175.9c3.1,0.3,6.2,0.4,9.4,0.1c4-0.4,7.3-1.3,11.3,0c3.7,1.2,7.1,2.5,10.5,4.5c1.9,1.1,8.8,3.5,9.2,5c0.1,0.3,0.8,0.1,0.7-0.2c-0.4-2-1.6-2.2-3.4-2.8c-4.4-1.5-8.2-4-12.5-5.7c-2.9-1.1-6-2.4-9.2-2.5c-2.1,0-4.4,0.8-6.5,1c-3.1,0.3-6.1,0.2-9.2-0.1C195.9,175.4,195.5,175.9,196,175.9L196,175.9z"/><path class="st0" d="M239.2,178.8c-0.1,0-4.8-3.1-5.7-3.4c-3.8-1.1-7.6-2.1-11.4-3.2c-6.3-1.8-12.3-3.1-18.8-2.8c-0.4,0-0.6,0.6-0.1,0.5c8.6-0.4,16.4,2.1,24.6,4.5c1.7,0.5,3.6,0.8,5.2,1.5c1.5,0.6,2.8,2.5,4,2.9c1.7,0.7,0.4,0.8,2.2,0.4C239.7,179.2,239.6,178.7,239.2,178.8L239.2,178.8z"/><path class="st0" d="M205.5,164.1c1.5,2.7,5.6,3.1,8.3,3.9c6.9,1.9,14.2,3.1,21.2,4.6c0.3,0.1,0.9-0.3,0.4-0.4c-6-1.3-12-2.3-17.9-3.8c-0.5-0.1-10.9-3.5-11.3-4.4C206.1,163.6,205.4,163.8,205.5,164.1L205.5,164.1z"/><path class="st0" d="M240.5,169.3c-1.6-1-2.9-1.1-4.7-1.4c-3.3-0.6-6.2-2.2-9.5-2.8c-5.9-1.1-12-1.5-17.9-2.2c-0.3,0-0.8,0.4-0.3,0.5c5.4,0.6,10.8,1.2,16.2,2c2.8,0.4,5,1.6,7.6,2.4c2.7,0.8,5.4,0.5,7.9,2C240.2,169.9,240.8,169.5,240.5,169.3L240.5,169.3z"/><path class="st0" d="M254.9,186c3.8-3.1,7.3-3.1,11.8-4.1c3.8-0.9,7.4-2.1,11.5-2c7.8,0.2,15.6,0.6,23.3,2.2c0.2,0,0.9-0.3,0.4-0.4c-9-1.8-19.7-3.3-28.8-2.1c-3.6,0.5-7.1,1.8-10.7,2.4c-3.1,0.6-5.7,2-8.1,3.9C254,186.2,254.7,186.2,254.9,186L254.9,186z"/><path class="st0" d="M298.8,176.7c-2.7-3.5-6-2.4-10-3.2c-4.7-1-9.4-1.9-14.2-0.7c-4.7,1.1-9.6,3.5-14.2,5.2c-3.1,1.1-5.6,2.6-7.7,5.1c-0.2,0.3,0.5,0.2,0.7,0c3-3.7,7.3-4.8,11.6-6.2c3.7-1.2,7.3-3.5,11.1-4c4.6-0.7,8.8,0.3,13.1,1.4c3,0.8,6.8-0.1,8.9,2.7C298.3,177.2,298.9,176.9,298.8,176.7L298.8,176.7z"/><path class="st0" d="M257.4,175.5c4.5-4.5,9.5-5.6,15.7-5.7c2.6,0,5.2-0.6,7.8-0.4c2,0.2,3.6,0.8,5.6,0.9c3.2,0.2,6.8-0.7,10.1-1c0.4,0,0.6-0.6,0.1-0.5c-2.2,0.2-4.5,0.6-6.7,0.7c-2.9,0.1-4.5-1.3-7.7-1.2c-3.6,0-7,0.9-10.7,1c-5.8,0.1-10.5,1.9-14.6,6C256.5,175.7,257.2,175.8,257.4,175.5L257.4,175.5z"/><path class="st0" d="M295.5,162.9c-6.9,3.1-15.7,1.7-23.1,3.1c-3.7,0.7-7.3,1.8-11.1,2.2c-2.7,0.3-4.5,0.8-7,1.9c-0.5,0.2,0,0.5,0.3,0.4c3.4-1.6,7.9-1.6,11.7-2.6c4.1-1.1,8.2-1.9,12.3-2.4c5.8-0.6,11.7,0.2,17.1-2.2C296.3,163,295.9,162.7,295.5,162.9L295.5,162.9z"/><path class="st0" d="M211,117.9c-9.7,13.4-11.5,30.1-12.6,46.2c-0.1,0.8,1.4,0.6,1.5-0.1c1.1-15.8,2.8-32.4,12.4-45.6C212.8,117.6,211.4,117.4,211,117.9L211,117.9z"/><path class="st0" d="M212.6,152.5c0.4,2.4,0.3,4.8,0.7,7.2c0.1,0.3,1.5,0,1.4-0.4c-0.4-2.4-0.3-4.8-0.7-7.2C214,151.7,212.6,152.1,212.6,152.5L212.6,152.5z"/><path class="st0" d="M283.6,147.3c-0.9,1.3-1.1,2.8-0.7,4.3c0.1,0.3,1.5-0.1,1.4-0.4c-0.4-1.5-0.1-2.9,0.7-4.2c0.1-0.2-0.5-0.1-0.6-0.1C284.2,147,283.8,147.1,283.6,147.3L283.6,147.3z"/><path class="st0" d="M278.6,111.9c5.2,7.5,11,15.2,15,23.4c3.3,6.7,4.3,13.8,4.7,21.2c0,0.5,1.5,0.2,1.4-0.4c-0.5-8-1.7-15.7-5.6-22.8c-4.1-7.6-9.3-14.8-14.3-21.9C279.7,110.9,278.3,111.4,278.6,111.9L278.6,111.9z"/><path class="st0" d="M280.2,59.3c0,5.8-0.3,11.9,1.8,17.4c0.2,0.5,1.6,0.1,1.4-0.4c-2.1-5.5-1.8-11.6-1.8-17.4C281.7,58.5,280.2,58.8,280.2,59.3L280.2,59.3z"/><path class="st0" d="M283.5,63.7c0.3,0,0.5,1,0.5,1.2c0.1,1.1-0.6,2-1.3,2.8c-0.3,0.3,0.4,0.4,0.6,0.2c0.9-0.9,1.6-2.1,1.4-3.4c-0.1-0.5-0.4-1.3-1-1.3C283.4,63.2,283,63.7,283.5,63.7L283.5,63.7z"/><path class="st0" d="M281.3,61c2.7-0.1,3.9,2.8,3.8,5.1c-0.1,2.4-1.2,3.7-3.7,3.4c-0.8-0.1-1.5,1-0.5,1.1c3,0.4,5.3-1,5.6-4.2c0.3-3.2-1.6-6.7-5.2-6.6C280.6,59.9,280.4,61.1,281.3,61L281.3,61z"/><path class="st0" d="M320.3,135.8c3.3-7.4,4.5-16.3,1.7-24c-1.1-3.1-3-6-5.6-8c-1.9-1.5-4.1-2.4-5.9-3.8c-3.1-2.4-5.1-5.7-6.7-9.2c-2.3-5.2-3.3-11-4.5-16.5c-1.8-8.1-3.4-16.3-5-24.5c-2.7-14.3-4-31.8-16.1-41.7c-7.6-6.3-19.4-8.4-29.1-7.8c-4.2,0.3-8.3,1.2-12.1,2.8c-2.1,0.9-4,2.1-5.9,3.2c-3.9,2.3-7.3,2.8-11.7,3.4c-9.7,1.5-16.7,7.3-20.4,16.4c-2.4,5.8-3,12.2-3,18.5c0,6.2,2.1,13.9-0.6,19.7c-0.3,0.7,1.1,0.6,1.4,0.1c1.4-3,1.3-6.1,1.2-9.3c-0.3-6.2-0.8-12.4,0-18.7c1.5-12.4,8.2-23.8,21.4-25.7c3.4-0.5,6.8-0.7,10-2.2c5.7-2.7,10.1-6,16.5-6.9c11.3-1.7,25.8,1.1,33.8,9.7c9.8,10.5,10.9,26.6,13.5,40.1c2.4,12.4,4.1,25.5,8.3,37.5c1.2,3.5,3,7.2,5.6,9.9c3.2,3.4,7.9,4.7,10.8,8.4c6.3,7.9,5.1,20.1,1.3,28.7C318.6,136.4,320.1,136.3,320.3,135.8L320.3,135.8z"/><path class="st0" d="M305,96c6.1,8.9,11.2,18.5,13.4,29.2c1.6,7.9,1.4,15.9,1,23.9c0.4-0.2,0.8-0.3,1.2-0.5c-1.1-0.1-1.9-1-3-1.2c-0.4-0.1-0.9,0.1-1.1,0.4c-0.6,0.8-1.2,1.6-1.9,2.3c-2.4,2.4-1,1.2-2.6,0.7c-1-0.2-1.8-1.5-2.8-1.6c-1.2-0.1-1.2,0.2-2.1,1c-0.9,0.8-1.5,2.3-2.6,2.9c-1.6,0.9-2,0-3.7-0.1c-1.1-0.1-1.8-0.1-2.3,1c-0.3,0.7,1.1,0.5,1.4,0.1c-0.1,0.2,4.2,0.6,5,0.2c1-0.6,1.7-1.8,2.5-2.7c1.6-1.8,1.2-1.5,3.2-0.2c1.5,1,2,1.3,3.5,0.6c1.2-0.5,2-2.6,3.1-3c1.1-0.3,1.5,0.4,2.7,0.5c0.3,0,1.1,0,1.2-0.5c0.4-8.1,0.6-16.2-1-24.1c-2.2-10.7-7.4-20.4-13.5-29.4C306,95,304.6,95.5,305,96L305,96z"/><path class="st0" d="M189.2,193.2c-5.5,3-8.6,8.6-8.9,14.8c-0.3,6.3,1.7,15.4,6.7,19.8c5,4.4,13.1,5.7,19.6,6c8.6,0.5,17.2-0.9,25.7-2.4c4.4-0.8,8.7-1.6,13.1-2.1c2.6-0.3,6.4-1.1,8.9-0.6c4.5,0.8,6,2.8,7.5,6.7c1.3,3.3,4.3,8.1,8.7,6.9c4.1-1.1,2.7-7.2,2-10.1c-0.9-3.8-2.6-7.5-4-11.2c-0.9-2.4-1.5-5.6-4.1-6.7c-3.2-1.3-8,0.2-11.2,0.4c-5.9,0.4-11.8,0.3-17.7-0.2c-5.6-0.5-11.1-1.4-16.6-2.7c-4.7-1.1-10.5-2.7-11.7-8.1c-0.2-0.8-2.4-0.2-2.2,0.6c1.5,6.4,8.8,8,14.4,9.2c8.7,1.9,17.7,2.8,26.6,2.8c4.3,0,9.3-1.4,13.5-0.8c6.6,0.8,8.2,9.1,9.9,14.4c0.6,1.9,1.2,3.9,1.4,5.9c0.2,1.3,0.2,2.5,0,3.8c-1.9,1.3-3.4,1.2-4.6-0.5c-2.3-2.4-2.4-6.1-4.5-8.7c-4.2-5.2-14.4-2.5-19.8-1.7c-10,1.5-19.9,3.9-30,4.1c-9.9,0.1-22.2-1.4-26.6-11.4c-4-9.1-4.6-21.7,5.3-27.3C191.8,193.2,189.9,192.8,189.2,193.2L189.2,193.2z"/><path class="st0" d="M205.5,209c0.5,0,1.5-0.8,0.6-0.8C205.5,208.2,204.5,209,205.5,209L205.5,209z"/><path class="st0" d="M219.9,213.2c-6.4,4.4-6.2,14.5-1.1,19.9c0.4,0.4,1.8-0.1,1.3-0.6c-4.7-4.9-5.3-14.7,0.7-18.8C221.6,213.1,220.4,212.8,219.9,213.2L219.9,213.2z"/><path class="st0" d="M231.1,230.8c-3.9,2.9-9.6,22.2-2.3,21.3c4.3-0.5,7.1-8.6,10-11.3c6-5.5,15.5-6.2,23.3-6.6c0.5,0,1.5-0.8,0.6-0.8c-8,0.5-17.5,1.2-24.1,6.4c-1.8,1.5-3.2,3.3-4.6,5.2c-1.3,1.8-4.9,8-6.9,4c-1.3-2.7,0.2-8.8,1.1-11.6c0.7-2.2,2.1-4.9,4-6.3C232.9,230.5,231.4,230.5,231.1,230.8L231.1,230.8z"/><path class="st0" d="M266,217.5c6.9-4.5,16.2-4.7,21.3-11.8c0.5-0.7-0.8-0.9-1.2-0.4c-4.9,6.9-14.3,7.2-21.1,11.6C264.2,217.4,265.4,217.9,266,217.5L266,217.5z"/><path class="st0" d="M275.3,213c6.7,2.8,7.9,11,5.7,17.2c-0.1,0.3,1.3,0.1,1.4-0.3c2.2-6.3,1.1-14.7-5.7-17.4C276.2,212.3,275.1,212.9,275.3,213L275.3,213z"/><path class="st0" d="M271.4,233.2c10.4-2.3,21.7-4.2,30.6-10.3c7.7-5.2,15.5-15.3,8.4-24.3c-0.4-0.5-2.3,0.4-2.2,0.6c6.2,7.8,0.7,17-6.1,22.3c-8.6,6.6-19.9,8.6-30.3,10.9C270.9,232.5,269.9,233.5,271.4,233.2L271.4,233.2z"/><path class="st0" d="M302.2,209.4c0.9,1.2,1,2.7,0.4,4c-0.2,0.4,1.2,0.3,1.4-0.2c0.6-1.5,0.4-3.1-0.5-4.4C303.2,208.4,301.8,208.9,302.2,209.4L302.2,209.4z"/><path class="st0" d="M199.6,76.5c-2.3,5.9-5.8,11.4-9,16.8c-3.7,6.4-7.5,12.9-11.7,19c-4.6,6.7-10.2,13.8-9.5,22.5c0.3,3.5,2.1,6.7,3.7,9.8c1,1.9,6.5,9.7,3.8,11.6c-0.8,0.6,0.4,1,0.9,0.6c4-2.7-2.5-11.2-3.9-13.9c-2.6-5.1-3.7-9.5-2.2-15.2c1.5-5.5,4.9-10,8.1-14.6c4.2-6,7.9-12.4,11.6-18.7c3.4-5.8,7.1-11.6,9.6-17.8C201.3,75.9,199.8,75.9,199.6,76.5L199.6,76.5z"/><path class="st0" d="M216.5,62c-0.6,0.7-1.2,1.5-1.7,2.3c-0.2,0.3,0.5,0.3,0.7,0.1c0.5-0.7,1-1.5,1.6-2.1C217.4,61.8,216.7,61.8,216.5,62L216.5,62z"/><path class="st0" d="M218.1,62.4c-0.5,0.7-1.1,1.3-1.6,2c-0.2,0.2,0.5,0.1,0.7,0c0.5-0.7,1.1-1.3,1.6-2C218.9,62.2,218.2,62.3,218.1,62.4L218.1,62.4z"/><path class="st0" d="M219.5,62.4c-0.5,0.8-1,1.5-1.6,2.2c-0.1,0.1,0.1,0.2,0.2,0.2c0.2,0,0.4-0.1,0.5-0.2c0.6-0.7,1.1-1.4,1.6-2.2C220.3,62.1,219.6,62.2,219.5,62.4L219.5,62.4z"/><path class="st0" d="M221,62.2c-0.6,0.9-1.2,1.8-1.8,2.7c-0.2,0.3,0.5,0.3,0.7,0c0.6-0.9,1.2-1.8,1.8-2.7C221.9,62,221.1,62,221,62.2L221,62.2z"/><path class="st0" d="M222.5,62.1c-0.6,1-1,2-1.6,2.9c-0.2,0.3,0.6,0.2,0.7,0c0.6-1,1-2,1.6-2.9C223.3,61.8,222.6,61.9,222.5,62.1L222.5,62.1z"/><path class="st0" d="M224.1,62.5c-0.6,0.9-1.1,1.9-1.7,2.8c-0.2,0.3,0.5,0.2,0.7,0c0.6-0.9,1.1-1.9,1.7-2.8C224.9,62.2,224.2,62.3,224.1,62.5L224.1,62.5z"/><path class="st0" d="M253.7,215c0.7,2.1,1.8,4.4,3.9,5.3c2.4,1,5.5,0.8,8,0.2c0.5-0.1,0.3-0.6-0.1-0.5c-2.3,0.5-5.2,0.8-7.4-0.2c-1.9-0.8-3-3.1-3.6-5C254.3,214.5,253.6,214.7,253.7,215L253.7,215z"/><path class="st0" d="M257.1,216.9c-1.3,0.2-2.5,0.8-3.5,1.7c-0.3,0.3,0.4,0.2,0.6,0.1c0.8-0.7,1.8-1.3,2.9-1.4C257.3,217.2,257.6,216.9,257.1,216.9L257.1,216.9z"/><path class="st0" d="M257.5,218.1c-0.8,0.7-1.6,1.4-2.4,2c-0.4,0.3,0.2,0.5,0.5,0.3c0.9-0.7,1.8-1.4,2.6-2.1C258.4,218,257.7,217.9,257.5,218.1L257.5,218.1z"/><path class="st0" d="M258.7,219.7c-0.3,0.6-0.7,1.1-1,1.7c-0.2,0.4,0.5,0.4,0.7,0.1c0.3-0.6,0.7-1.1,1-1.7C259.6,219.5,258.9,219.4,258.7,219.7L258.7,219.7z"/><path class="st0" d="M261.3,220.3c0.2,0.6,0.4,1.1,0.5,1.7c0.1,0.2,0.8,0,0.7-0.2c-0.2-0.6-0.4-1.1-0.5-1.7C262,219.9,261.2,220.1,261.3,220.3L261.3,220.3z"/><path class="st0" d="M263.9,235.5c2.5-0.3,5.4-0.6,7.7,0.3c0.3,0.1,0.8-0.3,0.4-0.4c-2.4-1-5.5-0.6-8-0.3C263.6,235.1,263.4,235.5,263.9,235.5L263.9,235.5z"/><path class="st0" d="M265.9,234.3c0.5,0.7,0.8,1.4,1,2.2c0.1,0.2,0.8,0.1,0.7-0.2c-0.2-0.8-0.6-1.6-1.1-2.3C266.5,233.8,265.8,234,265.9,234.3L265.9,234.3z"/><path class="st0" d="M268.5,234c0.2,0.2,0.2,0.8,0.2,1c0,0.3,0.1,0.7,0.1,1.1c-0.1,0.4,0.7,0.3,0.7,0c0.1-0.4,0-0.8-0.1-1.2c0-0.3-0.1-0.9-0.3-1.1C268.9,233.4,268.3,233.7,268.5,234L268.5,234z"/><path class="st0" d="M224.9,216.3c-1.2,0.3-2.3,0.8-3.5,1.1c-0.1,0-0.4,0.3-0.3,0.4c0.9,0.9,2.7,2.3,4.1,2.3c0.5,0,1-0.4,1.4-0.6c0.9-0.4,1.7-0.9,2.6-1.4c0.2-0.1,0.3-0.4,0-0.5c-1.3-0.6-2.7-1-4.1-1.4c-0.4-0.1-0.7,0.5-0.2,0.6c1.4,0.3,2.6,0.7,3.9,1.3c0-0.2,0-0.3,0-0.5c-1,0.6-2.2,1.4-3.3,1.7c-1.1,0.3-2.9-1-3.7-1.9c-0.1,0.1-0.2,0.3-0.3,0.4c1.2-0.3,2.3-0.8,3.5-1.1C225.5,216.7,225.3,216.1,224.9,216.3z"/><path class="st0" d="M232.1,220.6c-1.4,0.5-2.8,1-4.2,1.4c-0.1,0-0.5,0.2-0.3,0.3c1,0.4,1.9,0.7,2.9,1.1c0.5,0.2,1.1,0.6,1.6,0.6c0.4,0,0.8-0.3,1.2-0.5c0.9-0.4,1.8-0.9,2.7-1.4c0.1,0,0.2-0.2,0.1-0.2c-1.2-0.4-2.4-0.8-3.6-1.4c-0.2-0.1-0.8,0.2-0.7,0.3c0.6,0.3,1.2,0.6,1.8,0.8c0.3,0.1,0.7,0.3,1,0.4c0.4,0.1,0.7-0.1,0.5,0.2c-0.4,0.5-2,1.1-2.6,1.3c-0.4,0.1,0.1,0.1-0.3,0.1c-0.4-0.1-0.8-0.3-1.2-0.5c-1-0.4-1.9-0.8-2.9-1.1c-0.1,0.1-0.2,0.2-0.3,0.3c1.5-0.4,2.9-1,4.4-1.5C232.9,220.6,232.4,220.4,232.1,220.6z"/><path class="st0" d="M222,226.2c1-0.4,2.3-1.3,3.4-1.4c0.2,0,0.9,0.5,1.3,0.8c0.7,0.4,1.4,0.9,2,1.5c0.1-0.1,0.1-0.2,0.2-0.3c-0.8,0.3-1.6,0.6-2.5,0.8c-0.5,0.1-0.8,0.2-1,0.2c-1-0.2-2.3-1.2-3.2-1.8c-0.2-0.1-0.8,0.1-0.7,0.3c0.6,0.4,1.2,0.7,1.8,1.1c0.5,0.3,1.2,0.8,1.8,0.9c1.2,0.2,3-0.7,4.1-1.1c0.1,0,0.3-0.2,0.2-0.3c-0.8-0.7-1.7-1.3-2.6-1.9c-0.3-0.2-0.7-0.5-1.1-0.5c-0.5,0-1.2,0.4-1.6,0.6c-0.8,0.3-1.5,0.7-2.3,1C221.3,226.2,221.7,226.4,222,226.2z"/><path class="st0" d="M242.2,218.6c0.6-0.3,1.3-0.6,1.9-0.8c0.4-0.2,1.1-0.6,1.5-0.5c0.6,0,1.6,0.7,2.2,0.9c0.7,0.3,1.4,0,0.5,0.5c-0.6,0.3-1.4,1-2.1,1.1c-0.5,0.1-0.7,0-1.3-0.2c-0.9-0.4-1.8-0.8-2.7-1.1c-0.2-0.1-0.8,0.2-0.7,0.2c1.2,0.5,2.5,1.3,3.8,1.5c1.4,0.2,2.8-1.3,4-1.7c0.1,0,0.4-0.2,0.2-0.2c-1.2-0.4-2.8-1.6-4.1-1.2c-1.3,0.4-2.6,0.9-3.8,1.5C241.4,218.8,242.1,218.7,242.2,218.6z"/><path class="st0" d="M245.6,222.9c-1,0.2-1.8,0.7-2.7,1.1c-0.1,0-0.3,0.2-0.2,0.3c0.7,0.5,2,1.4,2.9,1.3c0.4-0.1,0.7-0.3,1-0.5c0.6-0.3,1.2-0.7,1.7-1c0.1,0,0.2-0.2,0.1-0.3c-0.9-0.3-1.7-0.6-2.6-0.8c-0.2-0.1-0.9,0.3-0.4,0.4c0.8,0.2,1.7,0.5,2.5,0.8c0-0.1,0-0.2,0.1-0.3c-0.7,0.4-1.5,1.1-2.2,1.3c-0.3,0.1,0,0-0.2,0c-0.2,0-0.4-0.2-0.6-0.3c-0.5-0.2-1.1-0.5-1.5-0.8c-0.1,0.1-0.1,0.2-0.2,0.3c0.8-0.4,1.6-0.8,2.5-1C246.1,223.1,246,222.8,245.6,222.9z"/><path class="st0" d="M257.9,222.3c-0.6-0.2-1.3-0.4-1.9-0.6c-0.4-0.1-0.8-0.3-1.2-0.2c-0.5,0.2-1,0.7-1.4,1.1c-0.3,0.2-0.9,0.6-1.1,1c-0.1,0.2,0.1,0.3,0.2,0.3c0.8,0.1,1.5,0.4,2.2,0.7c0.3,0.1,0.9,0.4,1.2,0.4c0.3,0,0.6-0.4,0.8-0.6c0.5-0.5,1-1.1,1.3-1.8c0.2-0.4-0.5-0.4-0.7-0.1c-0.3,0.5-0.7,1-1.1,1.5c0,0-0.5,0.5-0.3,0.4c0.1-0.1-0.2-0.1-0.3-0.1c-0.9-0.3-1.9-0.8-2.9-0.9c0.1,0.1,0.1,0.2,0.2,0.3c0.1-0.3,0.7-0.7,0.9-0.8c0.2-0.2,0.5-0.4,0.7-0.5c0.1-0.1,0.5-0.4,0.4-0.3c-0.2,0,0.2,0.1,0.4,0.1c0.3,0.1,0.6,0.2,0.9,0.3c0.4,0.1,0.9,0.3,1.3,0.4C257.8,222.9,258.4,222.4,257.9,222.3z"/><path class="st0" d="M266.6,227.6c-0.4-0.4-0.8-0.8-1.2-1.2c-0.2-0.2-0.6-0.7-0.9-0.8c-0.2-0.1-0.6,0-0.7,0.2c-0.2,0.3-0.3,0.7-0.5,1.1c-0.2,0.4-0.5,0.9-0.6,1.4c-0.1,0.3-0.1,0.3,0.2,0.5c0.7,0.6,1.3,1.1,2,1.7c0.1,0.1,0.6-0.1,0.7-0.2C266.1,229.5,266.1,228.5,266.6,227.6c0.1,0-0.6,0-0.7,0.2c-0.5,0.8-0.6,1.9-1,2.7c0.2-0.1,0.5-0.1,0.7-0.2c-0.5-0.6-1.1-1.1-1.7-1.5c-0.4-0.3-0.6-0.3-0.4-0.8c0.3-0.7,0.6-1.6,1-2.2c-0.2,0.1-0.4,0.1-0.7,0.2c0.3,0.1,0.7,0.7,1,0.9c0.4,0.3,0.7,0.7,1.1,1C266.1,228,266.7,227.7,266.6,227.6z"/><path class="st0" d="M270.3,216.8c1,0.1,2,0.2,3.1,0.3c0.5,0,1.4-0.1,0.7,0.5c-0.3,0.2-0.7,0.3-1,0.5c-0.2,0.1-0.3,0.3-0.5,0.4c-0.8,0.6-1.2,0.5-2.1,0.4c-0.7-0.1-1.1,0.1-1.1-0.7c0-0.8,0.6-0.8,1.3-1.1c0.4-0.2-0.2-0.2-0.4-0.1c-0.5,0.2-2.2,0.6-2.1,1.4c0,0.9,1.9,0.8,2.5,0.8c0.7,0.1,1.4,0.1,2-0.3c0.6-0.4,1.1-0.9,1.8-1.2c0.4-0.2,0.8-0.4,1.2-0.8c0.1-0.1,0-0.1-0.1-0.1c-1.5-0.1-3.1-0.2-4.6-0.3C270.6,216.4,270,216.7,270.3,216.8L270.3,216.8z"/><path class="st0" d="M277.8,222.8c-1.3,0.2-2.7-0.2-3.9,0.3c-1.2,0.5-1.9,1.6-3.2,2.1c-0.3,0.1-0.5,0.5-0.1,0.5c1,0.1,2,0.3,3,0.4c0.6,0.1,1.2,0.3,1.7,0.1c1.1-0.3,1.9-1.8,2.5-2.6c0.3-0.4-0.4-0.5-0.6-0.2c-0.7,0.9-1.4,2.3-2.6,2.3c-1.2,0-2.6-0.4-3.8-0.5c0,0.2,0,0.3-0.1,0.5c0.9-0.3,1.5-0.9,2.2-1.5c1.4-1.1,3-0.7,4.6-0.9C278.1,223.3,278.3,222.7,277.8,222.8L277.8,222.8z"/><path class="st0" d="M226,245.2c2.3-1,5.5-2,7.1,0.6c0.2,0.3,0.9,0,0.7-0.3c-1.8-3-5.5-1.8-8.1-0.8C225.3,244.9,225.7,245.3,226,245.2L226,245.2z"/><path class="st0" d="M228,243.1c0,0.7,0.1,1.4,0,2.1c0,0.1,0.7,0,0.7-0.2c0-0.7,0-1.4,0-2.1C228.8,242.7,228,242.8,228,243.1L228,243.1z"/><path class="st0" d="M230.6,243.6c-0.2,0.5-0.5,1-0.8,1.4c-0.2,0.3,0.5,0.2,0.7,0c0.4-0.5,0.6-1,0.8-1.6C231.4,243.3,230.7,243.3,230.6,243.6L230.6,243.6z"/><path class="st0" d="M232.7,243.6c-0.4,0.6-0.9,1.1-1.5,1.4c-0.4,0.2,0,0.6,0.3,0.4c0.8-0.4,1.4-1,1.9-1.7C233.6,243.3,232.9,243.3,232.7,243.6L232.7,243.6z"/><path class="st0" d="M233.3,234.5c-0.3,0.5-0.6,1-0.9,1.5c-0.2,0.4-0.7,1-0.8,1.4c-0.1,0.8,1,2.3,1.5,2.8c0.1,0.1,0.4,0.1,0.6,0c0.6-0.3,0.9-0.9,1.3-1.4c0.3-0.4,0.9-1.2,0.9-1.7c0-0.3,0-0.3-0.3-0.6c-0.6-0.7-1.2-1.4-1.7-2.2c-0.1-0.2-0.8,0-0.7,0.3c0.3,0.6,0.7,1.1,1.2,1.6c0.2,0.2,0.7,0.8,0.7,0.9c0,0.3-0.4,0.9-0.6,1.2c-0.3,0.6-0.7,1.2-1.3,1.6c0.2,0,0.4,0,0.6,0c-0.5-0.5-0.8-1.1-1.1-1.7c-0.1-0.2-0.4-0.5-0.4-0.8c0-0.2,0,0.1,0-0.2c0.3-0.9,1.1-1.9,1.6-2.8C234.1,234.2,233.4,234.3,233.3,234.5z"/><path class="st0" d="M252.3,230.4c-0.8,0-1.7-0.3-2.5-0.5c-0.4-0.1-0.9-0.3-1.3-0.3c-0.4,0.1-0.8,0.5-1.1,0.7c-0.7,0.5-1.3,0.9-1.9,1.5c-0.1,0.1-0.2,0.2-0.1,0.3c0.3,0.4,1.2,0.5,1.7,0.7c0.6,0.2,1.6,0.7,2.2,0.6c0.5-0.1,0.9-0.6,1.3-0.9c0.7-0.6,1.4-1.2,1.9-1.9c0.2-0.3-0.5-0.4-0.7-0.1c-0.4,0.6-1,1.1-1.5,1.6c-0.2,0.2-0.5,0.4-0.7,0.6c-0.1,0.1-0.2,0.2-0.2,0.2c-0.2,0.1,0.3,0,0.1,0c-0.6-0.1-1.2-0.3-1.7-0.5c-0.4-0.1-1.3-0.3-1.6-0.6c0,0.1-0.1,0.2-0.1,0.3c0.5-0.5,1-0.8,1.6-1.2c0.3-0.2,0.6-0.4,0.8-0.6c0.1-0.1,0.5-0.3,0.2-0.2c-0.3,0,0.4,0.2,0.5,0.2c0.4,0.1,0.7,0.2,1.1,0.3c0.6,0.1,1.2,0.3,1.8,0.3C252.4,231,252.8,230.5,252.3,230.4z"/><path class="st0" d="M239.2,230.9c-0.8,1-1.9,1.7-2.5,2.8c0,0,0,0.1,0.1,0.1c1.1,0.5,2.6,0.9,3.7,1c0.9,0.1,1.5-1,2-1.7c0.1-0.2,0.9-1,0.9-1.2c-0.1-0.3-0.6-0.4-0.8-0.4c-0.8-0.3-2.3-1-3.1-0.7c-0.5,0.2,0,0.3,0.3,0.2c-0.4,0.1-0.1,0.1,0.3,0.2c0.3,0.1,0.6,0.2,0.9,0.3c0.3,0.1,1.5,0.3,1.7,0.6c0.1,0.2-0.5,0.8-0.7,1.1c-0.2,0.3-0.5,0.6-0.7,0.9c-0.1,0.2-0.6,0.6-0.3,0.4c0.4-0.1-0.2-0.1-0.4-0.2c-0.4-0.1-0.8-0.2-1.2-0.3c-0.3-0.1-1.6-0.2-1.8-0.5c-0.2-0.4,2-2.3,2.4-2.7C240,230.7,239.3,230.7,239.2,230.9z"/><path class="st2" d="M235.6,14.8c0,0.4,0,0.8,0,1.2c0,0.4,0.7,0.3,0.7-0.1c0-0.4,0-0.8,0-1.2C236.3,14.4,235.6,14.5,235.6,14.8L235.6,14.8z"/><path class="st2" d="M236.1,20.6c0.2,1.3,0.4,2.6,0.6,3.9c0,0.2,0.8,0,0.7-0.2c-0.2-1.3-0.4-2.6-0.6-3.9C236.8,20.2,236.1,20.4,236.1,20.6L236.1,20.6z"/><path class="st2" d="M239.5,27.3c0.2,0.2,0.4,0.4,0.6,0.6c0.2,0.2,0.9-0.1,0.7-0.3c-0.2-0.2-0.4-0.4-0.6-0.6C240,26.9,239.3,27.1,239.5,27.3L239.5,27.3z"/><path class="st2" d="M243.2,33.4c0.1,0.2,0.2,0.4,0.3,0.6c0.1,0.3,0.8,0,0.7-0.3c-0.1-0.2-0.2-0.4-0.3-0.6C243.7,32.8,243,33.1,243.2,33.4L243.2,33.4z"/><path class="st2" d="M237.7,29.4c0.1,0.3,0.2,0.6,0.3,0.9c0.1,0.2,0.8,0,0.7-0.2c-0.1-0.3-0.2-0.6-0.3-0.9C238.3,29,237.6,29.2,237.7,29.4L237.7,29.4z"/><path class="st2" d="M241.6,37.9c0.3,0.5,0.6,1,0.9,1.5c0.1,0.2,0.8-0.1,0.7-0.2c-0.3-0.5-0.6-1-0.9-1.5C242.2,37.5,241.6,37.8,241.6,37.9L241.6,37.9z"/><path class="st2" d="M249.6,41c0.3,0.2,0.6,0.4,0.9,0.6c0.3,0.2,0.9-0.2,0.6-0.4c-0.3-0.2-0.6-0.4-0.9-0.6C249.9,40.4,249.2,40.8,249.6,41L249.6,41z"/><path class="st2" d="M254.3,45.8c0.2,0.2,0.4,0.4,0.6,0.6c0.2,0.2,0.9-0.1,0.7-0.3c-0.2-0.2-0.4-0.4-0.6-0.6C254.8,45.3,254.2,45.6,254.3,45.8L254.3,45.8z"/><path class="st2" d="M248.3,44.9c0.2,0.1,0.4,0.2,0.6,0.3c0.3,0.1,0.9-0.2,0.6-0.4c-0.2-0.1-0.4-0.2-0.6-0.3C248.7,44.4,248,44.8,248.3,44.9L248.3,44.9z"/><path class="st2" d="M255.2,34c0.3,0.4,0.6,0.8,0.9,1.2c0.1,0.2,0.8-0.1,0.7-0.3c-0.3-0.4-0.6-0.8-0.9-1.2C255.8,33.6,255.1,33.8,255.2,34L255.2,34z"/><path class="st2" d="M261.6,33.6c0.2,0.4,0.4,0.8,0.6,1.2c0.2,0.3,0.9,0.1,0.7-0.2c-0.2-0.4-0.4-0.8-0.6-1.2C262.2,33.1,261.5,33.4,261.6,33.6L261.6,33.6z"/><path class="st2" d="M264.6,43.3c0.2,0.6,0.4,1.2,0.6,1.8c0.1,0.2,0.8-0.1,0.7-0.2c-0.2-0.6-0.4-1.2-0.6-1.8C265.3,43,264.6,43.2,264.6,43.3L264.6,43.3z"/><path class="st2" d="M258.9,42.1c0.2,0.2,0.4,0.4,0.6,0.6c0.1,0.1,0.8-0.1,0.7-0.2c-0.2-0.2-0.4-0.4-0.6-0.6C259.4,41.8,258.8,42,258.9,42.1L258.9,42.1z"/><path class="st2" d="M262.9,51.9c0.2,0.1,0.4,0.2,0.6,0.3c0.3,0.2,0.8-0.3,0.4-0.5c-0.2-0.1-0.4-0.2-0.6-0.3C263.1,51.3,262.5,51.7,262.9,51.9L262.9,51.9z"/><path class="st2" d="M269.2,62.1c0.4,0.4,0.6,0.9,0.6,1.4c0,0.3,0.7,0.2,0.7-0.1c0-0.6-0.2-1.2-0.6-1.6C269.6,61.6,269,61.9,269.2,62.1L269.2,62.1z"/><path class="st2" d="M271.3,76c0.3,0.9,0.4,1.8,0.3,2.7c0,0.3,0.7,0.2,0.7-0.1c0.1-1,0-1.9-0.3-2.8C271.9,75.5,271.2,75.7,271.3,76L271.3,76z"/><path class="st2" d="M268.5,77.8c3.8,17,12.9,32.1,26.1,43.5c0.2,0.2,0.9-0.1,0.6-0.4C282,109.5,273,94.5,269.2,77.6C269.1,77.2,268.4,77.4,268.5,77.8L268.5,77.8z"/><path class="st2" d="M279.1,84.7c0,0.4,0,0.8,0,1.2c0,0.3,0.7,0.2,0.7-0.1c0-0.4,0-0.8,0-1.2C279.9,84.3,279.1,84.4,279.1,84.7L279.1,84.7z"/><path class="st2" d="M276.4,85.5c0.4,0,0.6-0.5,0.1-0.5C276.1,85,275.9,85.5,276.4,85.5L276.4,85.5z"/><path class="st2" d="M280.5,95.4c0.1,0,0.8-0.3,0.5-0.3C280.8,95.1,280.1,95.4,280.5,95.4L280.5,95.4z"/><path class="st2" d="M278.9,71.4c0.4,1.6,0.8,3.2,1.2,4.9c0.1,0.2,0.8,0.1,0.7-0.2c-0.4-1.6-0.8-3.2-1.2-4.9C279.6,71,278.9,71.2,278.9,71.4L278.9,71.4z"/><path class="st2" d="M287.9,96.3c0.1,0.1,0.2,0.2,0.3,0.3c0.1,0.1,0.8-0.1,0.7-0.3c-0.1-0.1-0.2-0.2-0.3-0.3C288.5,95.9,287.8,96.2,287.9,96.3L287.9,96.3z"/><path class="st2" d="M292.8,91c0.4,0,0.5-0.6,0.1-0.6C292.4,90.4,292.3,91,292.8,91L292.8,91z"/><path class="st2" d="M295.1,86.3c0.2,0.4,0.4,0.8,0.6,1.2c0.1,0.2,0.8,0,0.7-0.2c-0.2-0.4-0.4-0.8-0.6-1.2C295.7,85.9,295,86.1,295.1,86.3L295.1,86.3z"/><path class="st2" d="M292.1,75.8c0.3,0,0.8-0.5,0.3-0.5C292,75.4,291.6,75.8,292.1,75.8L292.1,75.8z"/><path class="st2" d="M278.8,60.2c0,0.5,0,1,0,1.5c0,0.4,0.7,0.2,0.7-0.1c0-0.5,0-1,0-1.5C279.6,59.8,278.8,59.9,278.8,60.2L278.8,60.2z"/><path class="st2" d="M274.1,63.1c0.5,0.3,0.7,0.8,0.8,1.4c0,0.3,0.8,0.2,0.7-0.2c-0.1-0.7-0.4-1.2-1-1.6C274.4,62.5,273.7,62.9,274.1,63.1L274.1,63.1z"/><path class="st2" d="M275.8,71.2c0.1,0.2,0.2,0.4,0.3,0.6c0.1,0.3,0.9,0.1,0.7-0.2c-0.1-0.2-0.2-0.4-0.3-0.6C276.4,70.7,275.7,70.9,275.8,71.2L275.8,71.2z"/><path class="st2" d="M287.9,63.9c0.1,0.3,0.2,0.6,0.3,0.9c0.1,0.3,0.8,0.1,0.7-0.2c-0.1-0.3-0.2-0.6-0.3-0.9C288.5,63.4,287.8,63.6,287.9,63.9L287.9,63.9z"/><path class="st2" d="M299.6,101.5c0.3,0,0.8-0.4,0.3-0.4C299.6,101.1,299.1,101.5,299.6,101.5L299.6,101.5z"/><path class="st2" d="M288.5,84.4c0,0.2,0,0.4,0,0.6c0,0.4,0.7,0.3,0.7,0c0-0.2,0-0.4,0-0.6C289.2,83.9,288.5,84,288.5,84.4L288.5,84.4z"/><path class="st2" d="M291.3,124.1c0.5,0.6,1,1.2,1.5,1.8c0.2,0.2,0.9,0,0.7-0.3c-0.5-0.6-1-1.2-1.5-1.8C291.7,123.6,291.1,123.9,291.3,124.1L291.3,124.1z"/><path class="st2" d="M298.2,132c0.1,0.3,0.2,0.6,0.3,0.9c0.1,0.3,0.8,0.1,0.7-0.2c-0.1-0.3-0.2-0.6-0.3-0.9C298.8,131.5,298.1,131.7,298.2,132L298.2,132z"/><path class="st2" d="M300.7,124.4c0.1,0,0.8-0.3,0.5-0.3C301.1,124.2,300.4,124.4,300.7,124.4L300.7,124.4z"/><path class="st2" d="M302.9,118.2c0.3,0,0.8-0.5,0.3-0.5C302.9,117.7,302.5,118.2,302.9,118.2L302.9,118.2z"/><path class="st2" d="M289.1,105.7c0.6,0.5,1.1,1.1,1.5,1.8c0.1,0.2,0.8,0,0.7-0.2c-0.4-0.7-0.9-1.4-1.5-1.9C289.6,105.2,289,105.5,289.1,105.7L289.1,105.7z"/><path class="st2" d="M294.2,110.4c0,0.1,0,0.2,0,0.3c0,0.4,0.7,0.3,0.7-0.1c0-0.1,0-0.2,0-0.3C295,110,294.2,110.1,294.2,110.4L294.2,110.4z"/><path class="st2" d="M307.6,109.6c0.6,0.4,0.9,1.1,0.9,1.8c0,0.1,0.7,0,0.7-0.2c0-0.7-0.4-1.4-1-1.8C308.1,109.3,307.5,109.5,307.6,109.6L307.6,109.6z"/><path class="st2" d="M311.5,125.3c0.2,0.5,0.4,1,0.6,1.5c0.1,0.3,0.8,0,0.7-0.2c-0.2-0.5-0.4-1-0.6-1.5C312.1,124.8,311.4,125.1,311.5,125.3L311.5,125.3z"/><path class="st2" d="M307.3,125c0.3,0.6,0.6,1.2,0.9,1.8c0.1,0.3,0.8,0,0.7-0.2c-0.3-0.6-0.6-1.2-0.9-1.8C307.9,124.5,307.1,124.8,307.3,125L307.3,125z"/><path class="st2" d="M310.6,117.7c0.2,0.7,0.4,1.4,0.6,2.1c0.1,0.3,0.8,0.1,0.7-0.2c-0.2-0.7-0.4-1.4-0.6-2.1C311.2,117.2,310.5,117.4,310.6,117.7L310.6,117.7z"/><path class="st2" d="M307.3,139c0.2,0.2,0.4,0.4,0.6,0.6c0.2,0.2,0.9-0.1,0.7-0.3c-0.2-0.2-0.4-0.4-0.6-0.6C307.7,138.4,307,138.7,307.3,139L307.3,139z"/><path class="st2" d="M302.7,141.6c0.1,0.6,0.2,1.2,0.3,1.8c0,0.2,0.8,0.1,0.7-0.2c-0.1-0.6-0.2-1.2-0.3-1.8C303.4,141.2,302.7,141.4,302.7,141.6L302.7,141.6z"/><path class="st2" d="M305.8,132.3c0.1,0.3,0.2,0.6,0.3,0.9c0.1,0.3,0.8,0.1,0.7-0.2c-0.1-0.3-0.2-0.6-0.3-0.9C306.4,131.7,305.7,131.9,305.8,132.3L305.8,132.3z"/><path class="st2" d="M315.2,136.5c0.5,0.7,0.6,1.5,0.6,2.3c0,0.3,0.7,0.2,0.7-0.1c0.1-0.9-0.1-1.8-0.6-2.5C315.7,136,315,136.2,315.2,136.5L315.2,136.5z"/><path class="st2" d="M312.7,144.4c0,0.4,0,0.8,0,1.2c0,0.1,0.7,0,0.7-0.2c0-0.4,0-0.8,0-1.2C313.4,144,312.7,144.1,312.7,144.4L312.7,144.4z"/><path class="st2" d="M271.9,53.4c0.2,0.1,0.4,0.2,0.6,0.3c0.2,0.1,0.9-0.2,0.6-0.4c-0.2-0.1-0.4-0.2-0.6-0.3C272.3,52.9,271.6,53.2,271.9,53.4L271.9,53.4z"/><path class="st2" d="M273.4,44c0.2,0.2,0.4,0.4,0.6,0.6c0.2,0.2,0.8-0.1,0.7-0.3c-0.2-0.2-0.4-0.4-0.6-0.6C273.9,43.5,273.2,43.8,273.4,44L273.4,44z"/><path class="st2" d="M276.1,36.4c0.1,0.2,0.2,0.4,0.3,0.6c0.1,0.2,0.8,0,0.7-0.2c-0.1-0.2-0.2-0.4-0.3-0.6C276.7,36,276,36.2,276.1,36.4L276.1,36.4z"/><path class="st2" d="M281.8,28.5c0,0.2,0,0.4,0,0.6c0,0.2,0.7,0.1,0.7-0.2c0-0.2,0-0.4,0-0.6C282.6,28.1,281.8,28.3,281.8,28.5L281.8,28.5z"/><path class="st2" d="M285.8,29.4c0.2,0.4,0.4,0.8,0.6,1.2c0.1,0.2,0.8,0,0.7-0.2c-0.2-0.4-0.4-0.8-0.6-1.2C286.4,29,285.7,29.2,285.8,29.4L285.8,29.4z"/><path class="st2" d="M283.7,40.9c0.2,0.7,0.4,1.4,0.6,2.1c0.1,0.2,0.8,0,0.7-0.2c-0.2-0.7-0.4-1.4-0.6-2.1C284.4,40.5,283.6,40.7,283.7,40.9L283.7,40.9z"/><path class="st2" d="M280.6,47.5c0,0.4,0,0.8,0,1.2c0,0.3,0.7,0.2,0.7-0.1c0-0.4,0-0.8,0-1.2C281.4,47.1,280.6,47.3,280.6,47.5L280.6,47.5z"/><path class="st2" d="M285.8,53.3c0.1,0.4,0.2,0.8,0.3,1.2c0.1,0.4,0.8,0.2,0.7-0.2c-0.1-0.4-0.2-0.8-0.3-1.2C286.4,52.8,285.7,52.9,285.8,53.3L285.8,53.3z"/><path class="st2" d="M289.7,54.7c0,0.4,0,0.8,0,1.2c0,0.4,0.7,0.3,0.7-0.1c0-0.4,0-0.8,0-1.2C290.4,54.3,289.7,54.4,289.7,54.7L289.7,54.7z"/><path class="st2" d="M228.8,11.5c-0.9-0.1-1.8,0.2-2.5,0.7c-0.4,0.3,0.2,0.5,0.5,0.3c0.5-0.4,1.1-0.6,1.8-0.5C228.9,12,229.3,11.6,228.8,11.5L228.8,11.5z"/><path class="st2" d="M219.5,11.7c-0.4,0.2-0.8,0.4-1.2,0.6c-0.4,0.2,0,0.5,0.3,0.3c0.4-0.2,0.8-0.4,1.2-0.6C220.2,11.8,219.8,11.5,219.5,11.7L219.5,11.7z"/><path class="st2" d="M221.1,15.8c-0.9,0.3-1.8,0.6-2.7,0.9c-0.4,0.1-0.3,0.5,0.1,0.3c0.9-0.3,1.8-0.6,2.7-0.9C221.6,16,221.5,15.7,221.1,15.8L221.1,15.8z"/><path class="st2" d="M212.3,17.4c-0.3,0.3-0.6,0.6-0.9,0.9c-0.3,0.3,0.4,0.5,0.6,0.2c0.3-0.3,0.6-0.6,0.9-0.9C213.3,17.3,212.6,17.2,212.3,17.4L212.3,17.4z"/><path class="st2" d="M209.3,16.3c-0.5,0.4-1,0.8-1.5,1.2c-0.3,0.3,0.4,0.2,0.6,0.1c0.5-0.4,1-0.8,1.5-1.2C210.2,16.1,209.5,16.1,209.3,16.3L209.3,16.3z"/><path class="st2" d="M204.3,24c-0.7,0.3-1.2,0.7-1.4,1.4c-0.1,0.2,0.6,0.1,0.7-0.1c0.2-0.5,0.5-0.8,1-1C205.1,24.1,204.6,23.9,204.3,24L204.3,24z"/><path class="st2" d="M207.1,24.4c-0.2,0.5-0.4,1-0.6,1.5c-0.1,0.4,0.6,0.3,0.7,0.1c0.2-0.5,0.4-1,0.6-1.5C208,24.1,207.3,24.2,207.1,24.4L207.1,24.4z"/><path class="st2" d="M204.1,30.2c-0.4,0.6-0.8,1.2-1.2,1.8c-0.2,0.2,0.6,0.1,0.7,0c0.4-0.6,0.8-1.2,1.2-1.8C205,30,204.2,30.1,204.1,30.2L204.1,30.2z"/><path class="st2" d="M200.2,31.1c-0.1,0.3-0.2,0.6-0.3,0.9c-0.1,0.4,0.6,0.4,0.7,0.1c0.1-0.3,0.2-0.6,0.3-0.9C201,30.8,200.3,30.7,200.2,31.1L200.2,31.1z"/><path class="st2" d="M198.1,45.4c0,0.2,0,0.4,0,0.6c0,0.3,0.7,0.2,0.7-0.1c0-0.2,0-0.4,0-0.6C198.8,45,198.1,45.1,198.1,45.4L198.1,45.4z"/><path class="st2" d="M201.4,46c0,0.6,0,1.2,0,1.8c0,0.1,0.7,0,0.7-0.2c0-0.6,0-1.2,0-1.8C202.1,45.7,201.4,45.8,201.4,46L201.4,46z"/><path class="st2" d="M200.1,50.8c-0.1,0.6-0.2,1.2-0.3,1.8c0,0.3,0.7,0.2,0.7-0.1c0.1-0.6,0.2-1.2,0.3-1.8C200.9,50.4,200.1,50.6,200.1,50.8L200.1,50.8z"/><path class="st2" d="M201.3,56.4c0.3,0,0.8-0.4,0.3-0.4C201.3,56,200.8,56.4,201.3,56.4L201.3,56.4z"/><path class="st2" d="M234.3,9.9c0.2-0.1,0.4-0.2,0.6-0.3c0.4-0.2,0-0.7-0.3-0.5c-0.2,0.1-0.4,0.2-0.6,0.3C233.5,9.6,233.9,10.1,234.3,9.9L234.3,9.9z"/><path class="st2" d="M240.7,14.3c0.3,1.1,0.5,2.2,0.8,3.4c0,0.2,0.8,0,0.7-0.2c-0.3-1.1-0.5-2.2-0.8-3.4C241.4,13.9,240.7,14.1,240.7,14.3L240.7,14.3z"/><path class="st2" d="M241.1,7.9c0.1-0.2,0.2-0.4,0.4-0.4c0.4,0,0.7-0.5,0.2-0.5c-0.6,0-1.2,0.2-1.4,0.8C240.3,8.2,241,8.2,241.1,7.9L241.1,7.9z"/><path class="st2" d="M247,13.7c0.3,0.5,0.6,1,0.9,1.5c0.1,0.2,0.8-0.1,0.7-0.2c-0.3-0.5-0.6-1-0.9-1.5C247.6,13.3,247,13.6,247,13.7L247,13.7z"/><path class="st2" d="M245.9,24.9c0.4,0.6,0.8,1.2,1.2,1.8c0.1,0.2,0.8-0.1,0.7-0.3c-0.4-0.6-0.8-1.2-1.2-1.8C246.4,24.5,245.7,24.7,245.9,24.9L245.9,24.9z"/><path class="st2" d="M251.3,28.3c0.2,0.2,0.4,0.4,0.6,0.6c0.2,0.2,0.9-0.1,0.7-0.3c-0.2-0.2-0.4-0.4-0.6-0.6C251.8,27.7,251.1,28,251.3,28.3L251.3,28.3z"/><path class="st2" d="M252.2,17.6c0.1,0.2,0.2,0.4,0.3,0.6c0.1,0.2,0.8,0,0.7-0.2c-0.1-0.2-0.2-0.4-0.3-0.6C252.8,17.2,252.1,17.4,252.2,17.6L252.2,17.6z"/><path class="st2" d="M251.9,8c0.3,0.3,0.6,0.6,0.9,0.9c0.2,0.2,0.9-0.1,0.7-0.3c-0.3-0.3-0.6-0.6-0.9-0.9C252.4,7.5,251.7,7.8,251.9,8L251.9,8z"/><path class="st2" d="M259.8,18c0.3,0.2,0.6,0.4,0.9,0.6c0.2,0.2,0.9-0.2,0.6-0.4c-0.3-0.2-0.6-0.4-0.9-0.6C260.2,17.5,259.5,17.8,259.8,18L259.8,18z"/><path class="st2" d="M259.5,25.8c0.5,0.5,1,1,1.5,1.5c0.2,0.2,0.8-0.1,0.7-0.3c-0.5-0.5-1-1-1.5-1.5C260,25.4,259.3,25.7,259.5,25.8L259.5,25.8z"/><path class="st2" d="M267.4,25.9c0.1,0,0.2,0,0.3,0c0.4,0,0.6-0.5,0.1-0.5c-0.1,0-0.2,0-0.3,0C267,25.4,266.9,25.9,267.4,25.9L267.4,25.9z"/><path class="st2" d="M264.6,11.1c0.4,0,0.5-0.6,0.1-0.6C264.3,10.6,264.1,11.1,264.6,11.1L264.6,11.1z"/><path class="st2" d="M268,7.8c0.4,0,0.6-0.5,0.1-0.5C267.6,7.3,267.5,7.8,268,7.8L268,7.8z"/><path class="st2" d="M274,11.6c0.5,0.8,1,1.6,1.5,2.4c0.1,0.2,0.8,0,0.7-0.3c-0.5-0.8-1-1.6-1.5-2.4C274.5,11.1,273.8,11.3,274,11.6L274,11.6z"/><path class="st2" d="M272.8,18.5c0.1,0.3,0.2,0.6,0.3,0.9c0.1,0.3,0.8,0.1,0.7-0.2c-0.1-0.3-0.2-0.6-0.3-0.9C273.4,18,272.7,18.2,272.8,18.5L272.8,18.5z"/><path class="st2" d="M272.2,24.9c0.3,0.4,0.6,0.8,0.9,1.2c0.1,0.2,0.8-0.1,0.7-0.2c-0.3-0.4-0.6-0.8-0.9-1.2C272.8,24.5,272.1,24.8,272.2,24.9L272.2,24.9z"/><path class="st2" d="M273.4,32.6c0.2,0,0.4,0,0.6,0c0.4,0,0.5-0.6,0.1-0.6c-0.2,0-0.4,0-0.6,0C273,32.1,272.9,32.6,273.4,32.6L273.4,32.6z"/><path class="st2" d="M280.8,21c0.2,0,0.8-0.3,0.5-0.3C281.1,20.7,280.4,21,280.8,21L280.8,21z"/><path class="st2" d="M282.5,19.8c0.2,0.3,0.4,0.6,0.6,0.9c0.1,0.2,0.8,0,0.7-0.3c-0.2-0.3-0.4-0.6-0.6-0.9C283,19.3,282.3,19.5,282.5,19.8L282.5,19.8z"/><path class="st2" d="M200.8,81.4c-0.1,0.7-0.2,1.4-0.3,2.1c0,0.2,0.7,0.1,0.7-0.1c0.1-0.7,0.2-1.4,0.3-2.1C201.6,81.1,200.9,81.2,200.8,81.4L200.8,81.4z"/><path class="st2" d="M201.3,90.4c0.3,0,0.8-0.5,0.3-0.5C201.3,89.9,200.8,90.4,201.3,90.4L201.3,90.4z"/><path class="st2" d="M207.7,91.2c0.3,0,0.8-0.4,0.3-0.4C207.7,90.8,207.2,91.2,207.7,91.2L207.7,91.2z"/><path class="st2" d="M213.4,97c0.3,0,0.8-0.4,0.3-0.4C213.4,96.6,212.9,97,213.4,97L213.4,97z"/><path class="st2" d="M212.7,91.9c-3.8,19.9-23.7,34.2-22.1,55.5c0,0.3,0.7,0.1,0.7-0.2c-1.5-21.2,18.4-35.5,22.1-55.4C213.5,91.5,212.8,91.6,212.7,91.9L212.7,91.9z"/><path class="st2" d="M201.4,103.5c-0.4,0.5-0.8,1-1.2,1.5c-0.1,0.1,0.3,0.1,0.3,0.1c0.1,0,0.3-0.1,0.4-0.2c0.4-0.5,0.8-1,1.2-1.5c0.1-0.1-0.3-0.1-0.3-0.1C201.7,103.3,201.5,103.4,201.4,103.5L201.4,103.5z"/><path class="st2" d="M197.4,102.3c-0.1,0.3-0.2,0.6-0.3,0.9c0,0.1,0.7,0.1,0.7-0.1c0.1-0.3,0.2-0.6,0.3-0.9C198.2,102,197.5,102.1,197.4,102.3L197.4,102.3z"/><path class="st2" d="M200,94.8c0.2,0,0.8-0.3,0.5-0.3C200.3,94.5,199.6,94.8,200,94.8L200,94.8z"/><path class="st2" d="M204.3,99.4c0.3,0,0.8-0.4,0.3-0.4C204.3,99,203.8,99.4,204.3,99.4L204.3,99.4z"/><path class="st2" d="M201.4,124c-0.3,0.6-0.6,1.2-0.9,1.8c-0.1,0.2,0.6,0.1,0.7-0.1c0.3-0.6,0.6-1.2,0.9-1.8C202.2,123.8,201.5,123.8,201.4,124L201.4,124z"/><path class="st2" d="M195.9,134.9c0.1,1-0.1,2-0.6,3c-0.2,0.4,0.5,0.4,0.7,0.1c0.5-1,0.7-2,0.6-3.1C196.6,134.5,195.9,134.6,195.9,134.9L195.9,134.9z"/><path class="st2" d="M197.7,142.2c-0.1,0.3-0.2,0.6-0.3,0.9c-0.1,0.3,0.6,0.2,0.7-0.1c0.1-0.3,0.2-0.6,0.3-0.9C198.5,141.8,197.8,141.9,197.7,142.2L197.7,142.2z"/><path class="st2" d="M201.9,132.3c0.2,0,0.8-0.3,0.3-0.3C202,132,201.4,132.3,201.9,132.3L201.9,132.3z"/><path class="st2" d="M206.4,124.2c0.3,0,0.8-0.4,0.3-0.4C206.5,123.8,206,124.2,206.4,124.2L206.4,124.2z"/><path class="st2" d="M209.2,116.1c0.3,0,0.8-0.4,0.3-0.4C209.2,115.6,208.7,116.1,209.2,116.1L209.2,116.1z"/><path class="st2" d="M208.2,111.7c0.2,0,0.8-0.3,0.5-0.3C208.5,111.4,207.8,111.7,208.2,111.7L208.2,111.7z"/><path class="st2" d="M215.8,101.8c0.3,0,0.8-0.5,0.3-0.5C215.8,101.4,215.3,101.8,215.8,101.8L215.8,101.8z"/><path class="st2" d="M221.9,95.2c-0.1,0.2-0.2,0.4-0.3,0.6c-0.2,0.3,0.6,0.2,0.7,0c0.1-0.2,0.2-0.4,0.3-0.6C222.8,94.9,222.1,95,221.9,95.2L221.9,95.2z"/><path class="st2" d="M225.6,100.2c0,0.3,0,0.6,0,0.9c0,0.1,0.7,0,0.7-0.2c0-0.3,0-0.6,0-0.9C226.3,99.9,225.6,100,225.6,100.2L225.6,100.2z"/><path class="st2" d="M230.6,100.3c0.3,0,0.8-0.4,0.3-0.4C230.7,99.9,230.2,100.3,230.6,100.3L230.6,100.3z"/><path class="st2" d="M233.5,97.8c0.1,0.1,0.2,0.2,0.3,0.3c0.1,0.1,0.8-0.1,0.7-0.3c-0.1-0.1-0.2-0.2-0.3-0.3C234,97.4,233.3,97.7,233.5,97.8L233.5,97.8z"/><path class="st2" d="M258.9,93.9c0.1,0.1,0.2,0.2,0.3,0.3c0.2,0.2,0.8-0.1,0.7-0.3c-0.1-0.1-0.2-0.2-0.3-0.3C259.4,93.5,258.7,93.7,258.9,93.9L258.9,93.9z"/><path class="st2" d="M263.9,91.2c0.2,0,0.8-0.3,0.3-0.3C264,90.9,263.4,91.2,263.9,91.2L263.9,91.2z"/><path class="st2" d="M267.7,89.6c0.3,0.6,0.6,1.2,0.9,1.8c0.2,0.3,0.9,0.1,0.7-0.2c-0.3-0.6-0.6-1.2-0.9-1.8C268.3,89.1,267.5,89.3,267.7,89.6L267.7,89.6z"/><path class="st2" d="M272.1,94.3c0.3,0,0.8-0.5,0.3-0.5C272,93.8,271.6,94.3,272.1,94.3L272.1,94.3z"/><path class="st2" d="M192.3,111.3c0,0.2,0,0.4,0,0.6c0,0.4,0.7,0.2,0.7-0.1c0-0.2,0-0.4,0-0.6C193,110.9,192.3,111,192.3,111.3L192.3,111.3z"/><path class="st2" d="M188.6,110.3c0.2,0,0.8-0.4,0.3-0.4C188.7,109.9,188.1,110.3,188.6,110.3L188.6,110.3z"/><path class="st2" d="M184.7,121.7c0.2,0,0.8-0.3,0.3-0.3C184.7,121.4,184.2,121.7,184.7,121.7L184.7,121.7z"/><path class="st2" d="M182.6,129.8c0,0.2,0,0.4,0,0.6c0,0.1,0.7,0,0.7-0.2c0-0.2,0-0.4,0-0.6C183.4,129.5,182.6,129.6,182.6,129.8L182.6,129.8z"/><path class="st2" d="M191.7,121.6c-0.1,0.2-0.2,0.4-0.3,0.6c-0.1,0.1,0.6,0.1,0.7-0.1c0.1-0.2,0.2-0.4,0.3-0.6C192.5,121.4,191.8,121.4,191.7,121.6L191.7,121.6z"/><path class="st2" d="M197.6,118.1c0.2,0,0.8-0.3,0.5-0.3C197.9,117.8,197.2,118.1,197.6,118.1L197.6,118.1z"/><path class="st2" d="M187.4,133.3c0.3,0,0.8-0.4,0.3-0.4C187.4,132.9,186.9,133.3,187.4,133.3L187.4,133.3z"/><path class="st2" d="M184.4,142.5c0.3,0.6,0.4,1.1,0.3,1.8c0,0.3,0.7,0.2,0.7-0.1c0.1-0.7,0-1.3-0.3-1.9C185,142.1,184.3,142.3,184.4,142.5L184.4,142.5z"/><path class="st2" d="M188.1,148.8c0.4,0,0.5-0.6,0.1-0.6C187.7,148.2,187.6,148.8,188.1,148.8L188.1,148.8z"/><path class="st0" d="M221.4,53.4c-0.5,0.2-1,0.8-0.3,1.2c0.5,0.3,1.4,0.3,2,0c0.5-0.3,0.6-1,0-1.2c-0.6-0.2-1.5,0.1-1.7,0.7c-0.2,0.5,1.3,0.3,1.4-0.2c-0.9,0.3-1,0.3-0.5,0.2c0.3,0,0.3-0.1,0.1-0.1c0-0.1-0.2-0.1-0.1-0.3c-0.1,0.1-0.3,0.2-0.4,0.3c0,0,0.1,0,0.1,0c0.2-0.1,0.6-0.3,0.4-0.6C222.2,53.1,221.6,53.3,221.4,53.4L221.4,53.4z"/><path class="st0" d="M222.4,50.6c-2.2-0.1-6.5-0.5-7.9,1.8c-2.1,3.5,4,4.4,6,4.6c2.1,0.3,5.5,1.3,7.4-0.3c3.3-2.7-3.3-5.9-5.4-6.1c-0.5-0.1-2.3,0.8-1.8,0.8c2.1,0.3,5.3,1.6,5.8,4c0.3,1.2-0.1,1.1-0.9,1.1c-0.9,0-1.9-0.2-2.8-0.3c-1.5-0.2-3.4-0.2-4.7-0.9c-1-0.5-2.3-2-1.6-3.3c0.8-1.2,3.2-0.7,4.4-0.6C221.5,51.5,223.5,50.7,222.4,50.6z"/><path class="st0" d="M213.9,56c1.1,1.3,2.7,2.2,4.3,2.5c0.4,0.1,1.7-0.5,0.9-0.7c-1.5-0.4-2.9-1.2-3.9-2.4C214.9,55.2,213.5,55.7,213.9,56L213.9,56z"/><path class="st0" d="M257.9,54.2c0.2,0.1-0.1,0.3,0.2,0.1c0,0,0.1,0,0.1,0c0-0.2,0-0.2-0.1-0.1c-0.2,0.1-0.4,0.1-0.5,0.2c-0.1,0-0.1,0-0.2,0.1c0.2,0.5,1.6,0,1.4-0.4c-0.3-0.6-1.1-0.5-1.6-0.3c-0.4,0.2-0.8,0.9-0.2,1.2c0.6,0.3,1.5,0,1.9-0.3c0.4-0.3,0.7-0.9,0-1.2c-0.3-0.1-0.7,0-1,0.1C257.9,53.7,257.6,54,257.9,54.2L257.9,54.2z"/><path class="st0" d="M258.1,51.4c1.6-0.2,5.3-1,5.9,1.2c0.6,2.6-2.7,3.1-4.3,3.4c-1.2,0.2-3.1,1-4.3,0.8c-1.2-0.2-1.5-1.3-1.1-2.2c0.5-1.6,2.8-3,4.2-3.2c0.9-0.2,1.9-1.1,0.4-0.8c-2.3,0.4-7.3,2.4-7,5.5c0.3,2.9,5.3,1.2,6.9,0.9c2.4-0.5,6.5-0.8,7.3-3.7c1.2-3.9-5.2-3-7-2.8C258.5,50.6,256.7,51.6,258.1,51.4z"/><path class="st0" d="M265.1,56.3c-0.9,0.9-2.2,1.5-3.5,1.7c-0.7,0.1-1.2,0.8-0.2,0.7c1.9-0.3,3.7-1.1,5.1-2.4c0.2-0.3-0.2-0.3-0.4-0.3C265.7,55.9,265.3,56.1,265.1,56.3L265.1,56.3z"/><path class="st0" d="M240.7,82.8c2.3,0.4,4.6,0.7,6.7-0.5c0.8-0.5-0.4-0.7-0.9-0.4c-1.5,0.9-3.3,0.5-4.9,0.2C241.2,81.9,239.9,82.6,240.7,82.8L240.7,82.8z"/><path class="st2" d="M207.7,97.1c-2.7,9.4-7.3,17.9-13.6,25.3c-0.3,0.4,0.4,0.5,0.6,0.2c6.4-7.5,11-16,13.7-25.4C208.6,96.7,207.8,96.7,207.7,97.1L207.7,97.1z"/><path class="st2" d="M202.9,100.6c-1.7,6.6-4.7,12.5-9,17.8c-0.3,0.3,0.4,0.4,0.6,0.2c4.4-5.3,7.4-11.4,9.2-18.1C203.7,100.3,203,100.4,202.9,100.6L202.9,100.6z"/><path class="st2" d="M269.6,62c1.8,13.5,3.8,27.2,11.7,38.7c0.1,0.2,0.8,0,0.7-0.3c-7.9-11.4-9.9-25.1-11.6-38.6C270.2,61.6,269.5,61.8,269.6,62L269.6,62z"/><path class="st2" d="M273.2,72.7c1.1,9.1,4.3,17.4,9.5,24.9c0.1,0.2,0.8-0.1,0.7-0.3c-5.2-7.5-8.4-15.8-9.5-24.8C273.9,72.3,273.1,72.5,273.2,72.7L273.2,72.7z"/><path class="st2" d="M275.4,77c1.3,4.9,3.3,9.5,6.3,13.7c0.2,0.2,0.9,0,0.7-0.3c-2.9-4.2-5-8.7-6.2-13.6C276,76.5,275.3,76.7,275.4,77L275.4,77z"/><path class="st2" d="M238.2,13.7c-0.5,6.5,2,12.6,7,16.9c0.2,0.2,0.9-0.1,0.7-0.3c-4.9-4.2-7.4-10.2-6.9-16.6C239,13.3,238.2,13.5,238.2,13.7L238.2,13.7z"/><path class="st2" d="M240.6,15.7c0.4,4.3,2,8.3,5,11.5c0.1,0.1,0.8-0.1,0.7-0.3c-2.9-3.2-4.6-7.1-4.9-11.5C241.3,15.3,240.6,15.4,240.6,15.7L240.6,15.7z"/><path class="st2" d="M242.5,15.9c0.4,2.5,1.2,4.8,2.5,7c0.2,0.3,0.9,0,0.7-0.3c-1.3-2.1-2.1-4.4-2.4-6.9C243.2,15.3,242.5,15.5,242.5,15.9L242.5,15.9z"/><path class="st2" d="M244.7,16.5c0.1,1.8,0.9,3.5,2.3,4.7c0.1,0.1,0.8-0.1,0.7-0.2c-1.4-1.2-2.1-2.8-2.3-4.7C245.5,16.1,244.7,16.3,244.7,16.5L244.7,16.5z"/><path class="st2" d="M320.1,133.9c-1.6,5.8-3.7,10.5-8.3,14.4c-0.3,0.3,0.4,0.4,0.6,0.2c4.6-4,6.8-8.9,8.4-14.7C320.9,133.5,320.2,133.6,320.1,133.9L320.1,133.9z"/><path class="st0" d="M214.4,157.5c0.4-2.1,1.1-4,2.1-5.9c0.2-0.4-0.5-0.4-0.7-0.1c-1,1.9-1.7,3.9-2.2,6.1C213.6,157.9,214.4,157.8,214.4,157.5L214.4,157.5z"/><path class="st0" d="M251.6,138.8c0,0.3,0,0.6,0,0.9c0,0.4,0.7,0.3,0.7-0.1c0-0.3,0-0.6,0-0.9C252.4,138.4,251.6,138.5,251.6,138.8L251.6,138.8z"/><path class="st0" d="M252.5,138.8c0,0.2,0,0.3,0,0.5c0,0.4,0.7,0.3,0.7-0.1c0-0.2,0-0.3,0-0.5C253.3,138.4,252.5,138.5,252.5,138.8L252.5,138.8z"/><path class="st0" d="M258.3,133.9c0.3,0,0.8-0.4,0.3-0.4C258.3,133.5,257.8,133.9,258.3,133.9L258.3,133.9z"/><path class="st0" d="M259.4,133.2c0.2,0,0.8-0.3,0.5-0.3C259.7,132.9,259,133.2,259.4,133.2L259.4,133.2z"/><path class="st0" d="M270,125.2c0.4,0,0.6-0.5,0.1-0.5C269.6,124.7,269.5,125.2,270,125.2L270,125.2z"/><path class="st0" d="M267.6,126.8c0.4,0,0.6-0.5,0.1-0.5C267.3,126.3,267.2,126.8,267.6,126.8L267.6,126.8z"/><path class="st0" d="M221.6,135.8c0.2,0,0.8-0.3,0.3-0.3C221.7,135.4,221.1,135.8,221.6,135.8L221.6,135.8z"/><path class="st0" d="M222.5,135.8c0.3,0,0.8-0.4,0.3-0.4C222.5,135.4,222,135.8,222.5,135.8L222.5,135.8z"/><path class="st0" d="M235.7,153.3c0.2,0,0.8-0.3,0.3-0.3C235.8,153,235.2,153.3,235.7,153.3L235.7,153.3z"/><path class="st0" d="M236.2,153.3c-0.1,0.1-0.2,0.2-0.2,0.2c-0.3,0.3,0.4,0.3,0.6,0.1c0.1-0.1,0.2-0.2,0.2-0.2C237.1,153.1,236.4,153.1,236.2,153.3L236.2,153.3z"/><path class="st0" d="M211,143.9c0.3,0,0.8-0.4,0.3-0.4C211,143.5,210.5,143.9,211,143.9L211,143.9z"/><path class="st0" d="M212.2,144c0,0.1,0,0.2,0,0.2c0,0.1,0.7,0,0.7-0.2c0-0.1,0-0.2,0-0.2C212.9,143.6,212.2,143.8,212.2,144L212.2,144z"/><path class="st0" d="M228.5,154.3c-0.1,0.4-0.2,0.8-0.2,1.2c-0.1,0.4,0.7,0.3,0.7-0.1c0.1-0.4,0.2-0.8,0.2-1.2C229.3,153.9,228.6,154,228.5,154.3L228.5,154.3z"/><path class="st0" d="M228.5,154.9c0.2,0,0.8-0.3,0.3-0.3C228.6,154.6,228,154.9,228.5,154.9L228.5,154.9z"/><path class="st0" d="M232.6,133.5c0.4,0,0.6-0.5,0.1-0.5C232.2,133,232.1,133.5,232.6,133.5L232.6,133.5z"/><path class="st0" d="M234.1,131.4c0.3,0,0.8-0.5,0.3-0.5C234,131,233.6,131.4,234.1,131.4L234.1,131.4z"/><path class="st0" d="M247,117.6c0.1-0.4,0.2-0.8,0.2-1.2c0.1-0.4-0.7-0.3-0.7,0.1c-0.1,0.4-0.2,0.8-0.2,1.2C246.2,118,247,117.9,247,117.6L247,117.6z"/><path class="st0" d="M254.2,113.9c0-0.2,0-0.5,0-0.7c0-0.4-0.7-0.3-0.7,0c0,0.2,0,0.5,0,0.7C253.5,114.3,254.2,114.2,254.2,113.9L254.2,113.9z"/><path class="st0" d="M259.9,108.8c0.2,0,0.8-0.3,0.3-0.3C260,108.4,259.4,108.8,259.9,108.8L259.9,108.8z"/><path class="st0" d="M261.1,111.8c0.2,0,0.8-0.3,0.3-0.3C261.1,111.4,260.6,111.8,261.1,111.8L261.1,111.8z"/><path class="st0" d="M266.8,109c0.2,0,0.8-0.3,0.5-0.3C267.1,108.7,266.4,109,266.8,109L266.8,109z"/><path class="st0" d="M267.8,109.7c0.3,0,0.8-0.4,0.3-0.4C267.8,109.3,267.3,109.7,267.8,109.7L267.8,109.7z"/><path class="st0" d="M268.2,98.8c0.2,0,0.8-0.4,0.3-0.4C268.3,98.5,267.7,98.8,268.2,98.8L268.2,98.8z"/><path class="st0" d="M268,100c0.2,0,0.8-0.4,0.3-0.4C268.1,99.6,267.5,100,268,100L268,100z"/><path class="st0" d="M231.8,112.8c0,0.1,0,0.2,0,0.2c0,0.2,0.7,0.1,0.7-0.2c0-0.1,0-0.2,0-0.2C232.5,112.5,231.8,112.6,231.8,112.8L231.8,112.8z"/><path class="st0" d="M232.7,114.5c0.2,0,0.8-0.3,0.3-0.3C232.8,114.2,232.2,114.5,232.7,114.5L232.7,114.5z"/><path class="st0" d="M238.7,110.6c0.2,0,0.8-0.4,0.3-0.4C238.7,110.2,238.2,110.6,238.7,110.6L238.7,110.6z"/><path class="st0" d="M239.6,111.1c0.2,0,0.8-0.3,0.3-0.3C239.7,110.7,239.1,111.1,239.6,111.1L239.6,111.1z"/><path class="st0" d="M224.2,114.3c0.3,0,0.8-0.4,0.3-0.4C224.1,113.9,223.7,114.3,224.2,114.3L224.2,114.3z"/><path class="st0" d="M223.9,115.3c0.3,0,0.7-0.5,0.3-0.5C223.9,114.8,223.4,115.3,223.9,115.3L223.9,115.3z"/><path class="st0" d="M214.9,109.6c-0.1,0.2-0.2,0.3-0.2,0.5c-0.1,0.1,0.6,0.1,0.7-0.1c0.1-0.2,0.2-0.3,0.2-0.5C215.7,109.3,215,109.4,214.9,109.6L214.9,109.6z"/><path class="st0" d="M264.3,210c0,0.1,0,0.2,0,0.2c0,0.1,0.7,0,0.7-0.2c0-0.1,0-0.2,0-0.2C265,209.7,264.3,209.8,264.3,210L264.3,210z"/><path class="st0" d="M265,210.3c0.2,0,0.8-0.3,0.3-0.3C265.1,210,264.5,210.3,265,210.3L265,210.3z"/><path class="st0" d="M210.3,208.7c-0.1-1.1-0.1-2.3,0.1-3.4c0-0.2-0.7-0.1-0.7,0.1c-0.2,1.2-0.2,2.3-0.1,3.5C209.6,209.1,210.3,208.9,210.3,208.7L210.3,208.7z"/><path class="st0" d="M201.9,212.9c0.4,0,0.6-0.5,0.1-0.5C201.5,212.4,201.4,212.9,201.9,212.9L201.9,212.9z"/><path class="st0" d="M202.1,215.4c0.2,0,0.8-0.3,0.5-0.3C202.4,215.1,201.8,215.4,202.1,215.4L202.1,215.4z"/><path class="st0" d="M205,217c0.3,0,0.8-0.4,0.3-0.4C205,216.6,204.5,217,205,217L205,217z"/><path class="st0" d="M283.1,213.4c0.4,0,0.5-0.6,0.1-0.6C282.8,212.9,282.6,213.4,283.1,213.4L283.1,213.4z"/><path class="st0" d="M282.8,214c0.2,0,0.8-0.4,0.3-0.4C282.8,213.6,282.3,214,282.8,214L282.8,214z"/><path class="st0" d="M284.4,214.2c0.2,0,0.8-0.4,0.3-0.4C284.4,213.9,283.9,214.2,284.4,214.2L284.4,214.2z"/><path class="st0" d="M294.9,205.9c0.2,0,0.8-0.3,0.5-0.3C295.2,205.6,294.6,205.9,294.9,205.9L294.9,205.9z"/><path class="st0" d="M294.3,208.7c0.3,0,0.8-0.4,0.3-0.4C294.3,208.3,293.8,208.7,294.3,208.7L294.3,208.7z"/></g></svg>